<svg width="40" height="40" viewBox="0 0 40 40" fill="none" xmlns="http://www.w3.org/2000/svg">
<g clip-path="url(#clip0_2_894)">
<path d="M20.8075 36.9587L19.6713 37.2625C18.7994 37.4944 17.8794 37.1587 17.3675 36.4225L12.5038 29.4862L20.68 30.3581L22.2319 34.0544C22.7275 35.2544 22.0638 36.6225 20.8075 36.9587ZM5.02376 15.0462L2.38376 15.7581C0.671885 16.2219 -0.352489 17.9819 0.111886 19.6944L1.78376 25.9344C2.24001 27.6462 4.00001 28.6625 5.72001 28.1981L8.36001 27.4944L5.02376 15.0462ZM31.3325 27.6162L24.8606 3.45936C24.6663 2.73248 23.8031 2.42811 23.1956 2.87061L7.34064 14.4294L10.675 26.8731L30.185 28.9569C30.9325 29.0369 31.5275 28.3412 31.3325 27.6162ZM32.3144 7.61248C32.1319 7.61248 31.9488 7.56623 31.78 7.46873C31.2675 7.17311 31.0925 6.51811 31.3881 6.00623L32.9363 3.32561C33.2313 2.81248 33.8881 2.63748 34.3988 2.93373C34.9113 3.22936 35.0863 3.88436 34.7906 4.39623L33.2425 7.07686C33.0438 7.42061 32.6838 7.61248 32.3144 7.61248ZM33.8431 15.0681C33.37 15.0681 32.9375 14.7525 32.8094 14.2744C32.6569 13.7031 32.9956 13.1162 33.5669 12.9625L36.5569 12.1619C37.1313 12.0094 37.7156 12.3469 37.8694 12.9194C38.0219 13.4906 37.6831 14.0775 37.1119 14.2312L34.1219 15.0319C34.0275 15.0569 33.935 15.0681 33.8431 15.0681ZM38.9281 23.8375C38.7456 23.8375 38.5625 23.7912 38.3938 23.6937L35.7131 22.1456C35.2006 21.85 35.0256 21.195 35.3213 20.6831C35.6169 20.17 36.2731 19.995 36.7838 20.2912L39.4644 21.8394C39.9769 22.135 40.1519 22.79 39.8563 23.3019C39.6581 23.6456 39.2975 23.8375 38.9281 23.8375Z" fill="#FCEAFF"/>
</g>
<defs>
<clipPath id="clip0_2_894">
<rect width="40" height="40" fill="white"/>
</clipPath>
</defs>
</svg>
