<svg width="24" height="24" viewBox="0 0 24 24" fill="none" xmlns="http://www.w3.org/2000/svg">
<g clip-path="url(#clip0_63_231)">
<path d="M12.4845 22.1752L11.8028 22.3575C11.2796 22.4966 10.7276 22.2952 10.4205 21.8535L7.50226 17.6917L12.408 18.2149L13.3391 20.4326C13.6365 21.1526 13.2383 21.9735 12.4845 22.1752ZM3.01426 9.02775L1.43026 9.45487C0.403131 9.73312 -0.211494 10.7891 0.0671314 11.8166L1.07026 15.5606C1.34401 16.5877 2.40001 17.1975 3.43201 16.9189L5.01601 16.4966L3.01426 9.02775ZM18.7995 16.5697L14.9164 2.07562C14.7998 1.6395 14.2819 1.45687 13.9174 1.72237L4.40438 8.65763L6.40501 16.1239L18.111 17.3741C18.5595 17.4221 18.9165 17.0048 18.7995 16.5697ZM19.3886 4.5675C19.2791 4.5675 19.1693 4.53975 19.068 4.48125C18.7605 4.30387 18.6555 3.91087 18.8329 3.60375L19.7618 1.99537C19.9388 1.6875 20.3329 1.5825 20.6393 1.76025C20.9468 1.93762 21.0518 2.33062 20.8744 2.63775L19.9455 4.24612C19.8263 4.45237 19.6103 4.5675 19.3886 4.5675ZM20.3059 9.04087C20.022 9.04087 19.7625 8.8515 19.6856 8.56463C19.5941 8.22188 19.7974 7.86975 20.1401 7.7775L21.9341 7.29712C22.2788 7.20562 22.6294 7.40812 22.7216 7.75163C22.8131 8.09438 22.6099 8.4465 22.2671 8.53875L20.4731 9.01913C20.4165 9.03413 20.361 9.04087 20.3059 9.04087ZM23.3569 14.3025C23.2474 14.3025 23.1375 14.2747 23.0363 14.2162L21.4279 13.2874C21.1204 13.11 21.0154 12.717 21.1928 12.4099C21.3701 12.102 21.7639 11.997 22.0703 12.1748L23.6786 13.1036C23.9861 13.281 24.0911 13.674 23.9138 13.9811C23.7949 14.1874 23.5785 14.3025 23.3569 14.3025Z" fill="url(#paint0_linear_63_231)"/>
</g>
<defs>
<linearGradient id="paint0_linear_63_231" x1="12" y1="1.59878" x2="12" y2="22.401" gradientUnits="userSpaceOnUse">
<stop stop-color="#FBE4B6"/>
<stop offset="1" stop-color="#F0B476"/>
</linearGradient>
<clipPath id="clip0_63_231">
<rect width="24" height="24" fill="white"/>
</clipPath>
</defs>
</svg>
