<svg width="56" height="52" viewBox="0 0 56 52" fill="none" xmlns="http://www.w3.org/2000/svg">
<g clip-path="url(#clip0_2_893)" filter="url(#filter0_f_2_893)">
<path d="M28.8075 42.9587L27.6713 43.2625C26.7994 43.4944 25.8794 43.1587 25.3675 42.4225L20.5038 35.4862L28.68 36.3581L30.2319 40.0544C30.7275 41.2544 30.0638 42.6225 28.8075 42.9587ZM13.0238 21.0462L10.3838 21.7581C8.67189 22.2219 7.64751 23.9819 8.11189 25.6944L9.78376 31.9344C10.24 33.6462 12 34.6625 13.72 34.1981L16.36 33.4944L13.0238 21.0462ZM39.3325 33.6162L32.8606 9.45936C32.6663 8.73248 31.8031 8.42811 31.1956 8.87061L15.3406 20.4294L18.675 32.8731L38.185 34.9569C38.9325 35.0369 39.5275 34.3412 39.3325 33.6162ZM40.3144 13.6125C40.1319 13.6125 39.9488 13.5662 39.78 13.4687C39.2675 13.1731 39.0925 12.5181 39.3881 12.0062L40.9363 9.32561C41.2313 8.81248 41.8881 8.63748 42.3988 8.93373C42.9113 9.22936 43.0863 9.88436 42.7906 10.3962L41.2425 13.0769C41.0438 13.4206 40.6838 13.6125 40.3144 13.6125ZM41.8431 21.0681C41.37 21.0681 40.9375 20.7525 40.8094 20.2744C40.6569 19.7031 40.9956 19.1162 41.5669 18.9625L44.5569 18.1619C45.1313 18.0094 45.7156 18.3469 45.8694 18.9194C46.0219 19.4906 45.6831 20.0775 45.1119 20.2312L42.1219 21.0319C42.0275 21.0569 41.935 21.0681 41.8431 21.0681ZM46.9281 29.8375C46.7456 29.8375 46.5625 29.7912 46.3938 29.6937L43.7131 28.1456C43.2006 27.85 43.0256 27.195 43.3213 26.6831C43.6169 26.17 44.2731 25.995 44.7838 26.2912L47.4644 27.8394C47.9769 28.135 48.1519 28.79 47.8563 29.3019C47.6581 29.6456 47.2975 29.8375 46.9281 29.8375Z" fill="#CC00F5"/>
</g>
<defs>
<filter id="filter0_f_2_893" x="0" y="-2" width="56" height="56" filterUnits="userSpaceOnUse" color-interpolation-filters="sRGB">
<feFlood flood-opacity="0" result="BackgroundImageFix"/>
<feBlend mode="normal" in="SourceGraphic" in2="BackgroundImageFix" result="shape"/>
<feGaussianBlur stdDeviation="4" result="effect1_foregroundBlur_2_893"/>
</filter>
<clipPath id="clip0_2_893">
<rect width="40" height="40" fill="white" transform="translate(8 6)"/>
</clipPath>
</defs>
</svg>
