<svg width="40" height="40" viewBox="0 0 40 40" fill="none" xmlns="http://www.w3.org/2000/svg">
<path fill-rule="evenodd" clip-rule="evenodd" d="M19.9999 3.33331C16.318 3.33331 13.3332 6.31808 13.3332 9.99998H8.45095C5.40082 9.99998 2.9309 12.6351 3.38638 15.7152L5.85103 32.3818C6.22097 34.8835 8.41537 36.6666 10.9156 36.6666H29.0839C31.5842 36.6666 33.7786 34.8835 34.1486 32.3818L36.6132 15.7152C37.0687 12.6351 34.5987 9.99998 31.5486 9.99998H26.6666C26.6666 6.31808 23.6817 3.33331 19.9999 3.33331ZM23.3332 9.99998C23.3332 8.15903 21.8409 6.66665 19.9999 6.66665C18.1589 6.66665 16.6666 8.15903 16.6666 9.99998H23.3332ZM26.2542 19.7358C26.8604 20.4285 26.7901 21.4815 26.0974 22.0876L19.4307 27.921C18.7704 28.4988 17.7752 28.4656 17.1547 27.8451L13.8214 24.5118C13.1705 23.861 13.1705 22.8056 13.8214 22.1548C14.4723 21.504 15.5275 21.504 16.1784 22.1548L18.4092 24.3856L23.9024 19.579C24.5951 18.9728 25.6481 19.0431 26.2542 19.7358Z" fill="#FCEAFF"/>
</svg>
