<svg width="24" height="24" viewBox="0 0 24 24" fill="none" xmlns="http://www.w3.org/2000/svg">
<path fill-rule="evenodd" clip-rule="evenodd" d="M11.9998 2C9.79061 2 7.99975 3.79086 7.99975 6H5.07037C3.24029 6 1.75834 7.58107 2.03163 9.42913L3.51042 19.4291C3.73238 20.9301 5.04902 22 6.54916 22H17.4502C18.9504 22 20.267 20.9301 20.489 19.4291L21.9678 9.42913C22.2411 7.58107 20.7591 6 18.929 6H15.9998C15.9998 3.79086 14.2089 2 11.9998 2ZM13.9998 6C13.9998 4.89543 13.1044 4 11.9998 4C10.8952 4 9.99975 4.89543 9.99975 6H13.9998ZM15.7524 11.8415C16.1161 12.2571 16.0739 12.8889 15.6583 13.2526L11.6583 16.7526C11.2621 17.0993 10.665 17.0794 10.2927 16.7071L8.29264 14.7071C7.90212 14.3166 7.90212 13.6834 8.29264 13.2929C8.68317 12.9024 9.31633 12.9024 9.70686 13.2929L11.0454 14.6314L14.3413 11.7474C14.7569 11.3837 15.3887 11.4259 15.7524 11.8415Z" fill="url(#paint0_linear_63_2033)"/>
<defs>
<linearGradient id="paint0_linear_63_2033" x1="8.06888" y1="2" x2="8.06888" y2="22" gradientUnits="userSpaceOnUse">
<stop stop-color="#7700AE"/>
<stop offset="1" stop-color="#310047"/>
</linearGradient>
</defs>
</svg>
