<svg width="24" height="24" viewBox="0 0 24 24" fill="none" xmlns="http://www.w3.org/2000/svg">
<path fill-rule="evenodd" clip-rule="evenodd" d="M12.0002 2C9.7911 2 8.00024 3.79086 8.00024 6H5.07086C3.24078 6 1.75883 7.58107 2.03212 9.42913L3.51091 19.4291C3.73287 20.9301 5.04951 22 6.54965 22H17.4506C18.9508 22 20.2674 20.9301 20.4894 19.4291L21.9682 9.42913C22.2415 7.58107 20.7595 6 18.9294 6H16.0002C16.0002 3.79086 14.2093 2 12.0002 2ZM14.0002 6C14.0002 4.89543 13.1048 4 12.0002 4C10.8956 4 10.0002 4.89543 10.0002 6H14.0002ZM15.7528 11.8415C16.1165 12.2571 16.0743 12.8889 15.6587 13.2526L11.6587 16.7526C11.2625 17.0993 10.6654 17.0794 10.2931 16.7071L8.29313 14.7071C7.90261 14.3166 7.90261 13.6834 8.29313 13.2929C8.68366 12.9024 9.31682 12.9024 9.70735 13.2929L11.0458 14.6314L14.3417 11.7474C14.7573 11.3837 15.3891 11.4259 15.7528 11.8415Z" fill="url(#paint0_linear_63_1531)"/>
<defs>
<linearGradient id="paint0_linear_63_1531" x1="12.0002" y1="2" x2="12.0002" y2="22" gradientUnits="userSpaceOnUse">
<stop stop-color="#FBE4B6"/>
<stop offset="1" stop-color="#F0B476"/>
</linearGradient>
</defs>
</svg>
