<svg width="40" height="40" viewBox="0 0 40 40" fill="none" xmlns="http://www.w3.org/2000/svg">
<g clip-path="url(#clip0_1_423)">
<path d="M29.0163 6.54797C28.8621 6.0743 28.4524 5.72883 27.96 5.65734L23.2738 4.97625L21.1773 0.729219C20.9576 0.282812 20.5027 0 20.0043 0C19.5059 0 19.051 0.282812 18.8313 0.729219L16.7348 4.97633L12.0477 5.65742C11.5553 5.72898 11.1456 6.07437 10.9914 6.54805C10.8373 7.02172 10.9659 7.5418 11.3228 7.88937L14.7151 11.1952L13.9135 15.8627C13.8292 16.3537 14.0311 16.85 14.4341 17.1427C14.8379 17.4366 15.372 17.4727 15.8124 17.2423L20.0046 15.0385L24.1959 17.2423C24.6465 17.4787 25.1785 17.4299 25.5743 17.1427C25.9772 16.8501 26.1792 16.3538 26.0949 15.8631L25.2941 11.1952L28.6855 7.88937C29.042 7.5418 29.1697 7.02164 29.0163 6.54797Z" fill="#FCEAFF"/>
<path d="M25.234 19.9363H14.766C14.0434 19.9363 13.4575 20.5222 13.4575 21.2449V40H26.5425V21.2449C26.5425 20.5222 25.9567 19.9363 25.234 19.9363Z" fill="#FCEAFF"/>
<path d="M1.68101 25.1703C0.958357 25.1703 0.372498 25.7561 0.372498 26.4788V38.9654C0.372498 39.5369 0.835701 40 1.40703 40H10.8405V25.1703H1.68101Z" fill="#FCEAFF"/>
<path d="M38.319 30.4043H29.1595V40H38.5931C39.1645 40 39.6276 39.5368 39.6276 38.9655V31.7128C39.6275 30.9902 39.0417 30.4043 38.319 30.4043Z" fill="#FCEAFF"/>
</g>
<defs>
<clipPath id="clip0_1_423">
<rect width="40" height="40" fill="white"/>
</clipPath>
</defs>
</svg>
