<svg width="56" height="56" viewBox="0 0 56 56" fill="none" xmlns="http://www.w3.org/2000/svg">
<g clip-path="url(#clip0_1_422)" filter="url(#filter0_f_1_422)">
<path d="M37.0163 14.548C36.8621 14.0743 36.4524 13.7288 35.96 13.6573L31.2738 12.9762L29.1773 8.72922C28.9576 8.28281 28.5027 8 28.0043 8C27.5059 8 27.051 8.28281 26.8313 8.72922L24.7348 12.9763L20.0477 13.6574C19.5553 13.729 19.1456 14.0744 18.9914 14.548C18.8373 15.0217 18.9659 15.5418 19.3228 15.8894L22.7151 19.1952L21.9135 23.8627C21.8292 24.3537 22.0311 24.85 22.4341 25.1427C22.8379 25.4366 23.372 25.4727 23.8124 25.2423L28.0046 23.0385L32.1959 25.2423C32.6465 25.4787 33.1785 25.4299 33.5743 25.1427C33.9772 24.8501 34.1792 24.3538 34.0949 23.8631L33.2941 19.1952L36.6855 15.8894C37.042 15.5418 37.1697 15.0216 37.0163 14.548Z" fill="#CC00F5"/>
<path d="M33.234 27.9363H22.766C22.0434 27.9363 21.4575 28.5222 21.4575 29.2449V48H34.5425V29.2449C34.5425 28.5222 33.9567 27.9363 33.234 27.9363Z" fill="#CC00F5"/>
<path d="M9.68101 33.1703C8.95836 33.1703 8.3725 33.7561 8.3725 34.4788V46.9654C8.3725 47.5369 8.8357 48 9.40703 48H18.8405V33.1703H9.68101Z" fill="#CC00F5"/>
<path d="M46.319 38.4043H37.1595V48H46.5931C47.1645 48 47.6276 47.5368 47.6276 46.9655V39.7128C47.6275 38.9902 47.0417 38.4043 46.319 38.4043Z" fill="#CC00F5"/>
</g>
<defs>
<filter id="filter0_f_1_422" x="0" y="0" width="56" height="56" filterUnits="userSpaceOnUse" color-interpolation-filters="sRGB">
<feFlood flood-opacity="0" result="BackgroundImageFix"/>
<feBlend mode="normal" in="SourceGraphic" in2="BackgroundImageFix" result="shape"/>
<feGaussianBlur stdDeviation="4" result="effect1_foregroundBlur_1_422"/>
</filter>
<clipPath id="clip0_1_422">
<rect width="40" height="40" fill="white" transform="translate(8 8)"/>
</clipPath>
</defs>
</svg>
