<svg width="30" height="30" viewBox="0 0 30 30" fill="none" xmlns="http://www.w3.org/2000/svg">
<g clip-path="url(#clip0_106_2496)">
<path d="M28.9015 20.6437C29.6307 18.8463 30 16.9474 30 14.9998C30 13.052 29.6304 11.1534 28.9015 9.35598C28.7999 9.10524 28.6918 8.85798 28.5776 8.6145C28.3218 8.0692 27.6037 7.94146 27.1779 8.36755C26.919 8.62649 26.8515 9.02009 27.0073 9.35156C27.1085 9.56729 27.2044 9.78585 27.2946 10.0079C27.9389 11.5974 28.2657 13.2769 28.2657 15.0002C28.2657 16.7234 27.9389 18.4032 27.2943 19.9924C26.6272 21.6372 25.647 23.1135 24.3804 24.3801C23.1138 25.6467 21.6375 26.6272 19.9927 27.2943C18.4035 27.9389 16.7238 28.2654 15.0005 28.2654C13.2769 28.2654 11.5974 27.9386 10.0082 27.2943C8.36314 26.6272 6.88681 25.647 5.62021 24.3804C4.35361 23.1138 3.37339 21.6375 2.70634 19.9924C2.06169 18.4032 1.73526 16.7238 1.73526 15.0002C1.73526 13.2769 2.06201 11.5971 2.70634 10.0079C3.37307 8.36282 4.35361 6.88681 5.62053 5.62021C6.88712 4.35361 8.36314 3.37307 10.0082 2.70634C11.5978 2.06169 13.2772 1.73495 15.0005 1.73495C16.7238 1.73495 18.4032 2.06201 19.9927 2.70603C20.1094 2.75334 20.2255 2.80254 20.3406 2.853C20.6683 2.99681 21.0509 2.92617 21.3038 2.67291C21.7346 2.24209 21.5993 1.51102 21.0414 1.26597C20.9102 1.20825 20.7777 1.15243 20.6447 1.0985C18.8466 0.369635 16.948 0 15.0002 0C13.0523 0 11.1534 0.369635 9.35598 1.0985C7.49487 1.85353 5.82521 2.96212 4.39367 4.39367C2.96181 5.82553 1.85322 7.49519 1.0985 9.35629C0.369635 11.1534 0 13.0523 0 15.0002C0 16.948 0.369634 18.8466 1.09818 20.644C1.85322 22.5054 2.96181 24.1751 4.39335 25.6066C5.8249 27.0382 7.49456 28.1468 9.35598 28.9015C11.1534 29.6304 13.0523 30 14.9998 30C16.9477 30 18.8466 29.6304 20.6437 28.9015C22.5051 28.1468 24.1748 27.0382 25.6063 25.6063C27.0379 24.1748 28.1465 22.5051 28.9012 20.6437H28.9015Z" fill="#FFD574"/>
<path d="M24.8663 5.74733C25.3453 5.74733 25.7337 5.35902 25.7337 4.88001C25.7337 4.40101 25.3453 4.0127 24.8663 4.0127C24.3873 4.0127 23.999 4.40101 23.999 4.88001C23.999 5.35902 24.3873 5.74733 24.8663 5.74733Z" fill="#FFD574"/>
<path d="M8.04386 8.9444C8.04386 8.65015 8.18137 8.50317 8.4567 8.50317H21.1567C21.4415 8.50317 21.5838 8.64541 21.5838 8.93021V9.77009C21.5838 10.0549 21.4412 10.1971 21.1567 10.1971H16.2446C16.0071 10.1971 15.8885 10.316 15.8885 10.5532V16.59C15.8885 16.8275 16.0071 16.9461 16.2446 16.9461H21.2135C21.4983 16.9461 21.6405 17.0883 21.6405 17.3731V18.1988C21.6405 18.4836 21.4983 18.6259 21.2135 18.6259H16.2446C16.0071 18.6259 15.8885 18.7448 15.8885 18.9819V21.5019C15.8885 21.7867 15.7459 21.9289 15.4615 21.9289H14.18C13.8952 21.9289 13.753 21.7867 13.753 21.5019V18.9819C13.753 18.7448 13.6341 18.6259 13.3969 18.6259H8.35672C8.07193 18.6259 7.92969 18.4836 7.92969 18.1988V17.3731C7.92969 17.0883 8.07193 16.9461 8.35672 16.9461H13.3969C13.6341 16.9461 13.753 16.8275 13.753 16.59V10.5532C13.753 10.316 13.6341 10.1971 13.3969 10.1971H8.47058C8.18578 10.1971 8.04354 10.0549 8.04354 9.77009V8.9444H8.04386ZM9.93745 11.9627C10.0321 11.6306 10.2172 11.4644 10.4928 11.4644H11.7743C12.0591 11.4644 12.1635 11.6066 12.0874 11.8914L11.4753 14.0269C11.333 14.5586 11.2094 14.938 11.105 15.1661C10.8486 15.5552 10.5165 15.7593 10.1084 15.7782H8.86954C8.58475 15.7782 8.41381 15.636 8.35704 15.3512L8.24318 14.6394C8.17664 14.2789 8.28576 14.0985 8.57056 14.0985C9.09252 14.2032 9.4057 13.9657 9.5101 13.3866L9.93713 11.963L9.93745 11.9627ZM17.5976 11.9201C17.5216 11.6164 17.6165 11.4644 17.8824 11.4644H19.2064C19.4912 11.4644 19.6665 11.6066 19.7331 11.8914C19.8564 12.4134 19.9939 12.9356 20.1459 13.4576C20.2405 13.9893 20.5493 14.2029 21.0713 14.0982C21.3463 14.0982 21.4841 14.2404 21.4841 14.5252V15.3509C21.4841 15.6357 21.3416 15.7779 21.0571 15.7779H19.4054C19.0162 15.7874 18.6838 15.536 18.4088 15.0232C18.2949 14.7384 18.1858 14.359 18.0814 13.8843L17.5973 11.9195L17.5976 11.9201Z" fill="#FFD574"/>
</g>
<defs>
<clipPath id="clip0_106_2496">
<rect width="30" height="30" fill="white"/>
</clipPath>
</defs>
</svg>
