<svg width="40" height="40" viewBox="0 0 40 40" fill="none" xmlns="http://www.w3.org/2000/svg">
<path d="M30.8875 12.8625C30.7471 12.7219 30.5752 12.6169 30.3861 12.556C30.1969 12.4951 29.996 12.4802 29.8 12.5125C29.6054 12.545 29.4213 12.6231 29.2627 12.7405C29.1041 12.8578 28.9755 13.011 28.8875 13.1875C28.5052 13.849 28.0388 14.4583 27.5 15C27.3731 11.7138 26.1697 8.56031 24.075 6.025C22.9031 4.8217 21.4863 3.88424 19.9207 3.27608C18.355 2.66792 16.6769 2.40325 15 2.5C14.7739 2.5006 14.5521 2.56253 14.3584 2.6792C14.1647 2.79587 14.0063 2.9629 13.9 3.1625C13.7996 3.35796 13.7526 3.57643 13.7635 3.79588C13.7745 4.01533 13.8431 4.22802 13.9625 4.4125C14.1375 4.675 17.9375 10.525 13.6 15.7875C12.5 14.925 11.25 13.5625 11.25 12.5C11.2483 12.2201 11.1528 11.9488 10.9786 11.7297C10.8045 11.5106 10.5618 11.3562 10.2895 11.2914C10.0173 11.2266 9.73108 11.255 9.47687 11.3721C9.22265 11.4893 9.01512 11.6884 8.8875 11.9375C7.18009 15.6432 6.281 19.67 6.25 23.75C6.25 34.525 14.2625 37.325 14.6 37.5C14.8423 37.5823 15.1039 37.5883 15.3497 37.5172C15.5955 37.446 15.8135 37.3012 15.9743 37.1022C16.1351 36.9032 16.231 36.6596 16.249 36.4044C16.267 36.1492 16.2063 35.8946 16.075 35.675C14.8892 33.5458 14.4202 31.0914 14.7375 28.675C15.5075 30.1682 16.6535 31.4349 18.0625 32.35C18.3276 32.5257 18.6497 32.5938 18.9632 32.5404C19.2767 32.487 19.5581 32.3161 19.75 32.0625C21.4785 29.5334 22.2982 26.4928 22.075 23.4375C23.3875 25.45 24.3875 29.2125 22.55 35.9375C22.5025 36.1214 22.4976 36.3137 22.5355 36.4997C22.5734 36.6858 22.6533 36.8608 22.7689 37.0114C22.8846 37.162 23.0331 37.2843 23.2031 37.369C23.3731 37.4536 23.5601 37.4984 23.75 37.5C23.8618 37.5182 23.9757 37.5182 24.0875 37.5C26.955 36.5399 29.44 34.6872 31.1786 32.2131C32.9173 29.7389 33.8184 26.7732 33.75 23.75C33.75 15.9625 31.175 13.1625 30.8875 12.8625Z" fill="#FCEAFF"/>
</svg>
