<svg width="44" height="52" viewBox="0 0 44 52" fill="none" xmlns="http://www.w3.org/2000/svg">
<g filter="url(#filter0_f_2_1684)">
<path d="M32.8875 18.8625C32.7471 18.7219 32.5752 18.6169 32.3861 18.556C32.1969 18.4951 31.996 18.4802 31.8 18.5125C31.6054 18.545 31.4213 18.6231 31.2627 18.7405C31.1041 18.8578 30.9755 19.011 30.8875 19.1875C30.5052 19.849 30.0388 20.4583 29.5 21C29.3731 17.7138 28.1697 14.5603 26.075 12.025C24.9031 10.8217 23.4863 9.88424 21.9207 9.27608C20.355 8.66792 18.6769 8.40325 17 8.5C16.7739 8.5006 16.5521 8.56253 16.3584 8.6792C16.1647 8.79587 16.0063 8.9629 15.9 9.1625C15.7996 9.35796 15.7526 9.57643 15.7635 9.79588C15.7745 10.0153 15.8431 10.228 15.9625 10.4125C16.1375 10.675 19.9375 16.525 15.6 21.7875C14.5 20.925 13.25 19.5625 13.25 18.5C13.2483 18.2201 13.1528 17.9488 12.9786 17.7297C12.8045 17.5106 12.5618 17.3562 12.2895 17.2914C12.0173 17.2266 11.7311 17.255 11.4769 17.3721C11.2227 17.4893 11.0151 17.6884 10.8875 17.9375C9.18009 21.6432 8.281 25.67 8.25 29.75C8.25 40.525 16.2625 43.325 16.6 43.5C16.8423 43.5823 17.1039 43.5883 17.3497 43.5172C17.5955 43.446 17.8135 43.3012 17.9743 43.1022C18.1351 42.9032 18.231 42.6596 18.249 42.4044C18.267 42.1492 18.2063 41.8946 18.075 41.675C16.8892 39.5458 16.4202 37.0914 16.7375 34.675C17.5075 36.1682 18.6535 37.4349 20.0625 38.35C20.3276 38.5257 20.6497 38.5938 20.9632 38.5404C21.2767 38.487 21.5581 38.3161 21.75 38.0625C23.4785 35.5334 24.2982 32.4928 24.075 29.4375C25.3875 31.45 26.3875 35.2125 24.55 41.9375C24.5025 42.1214 24.4976 42.3137 24.5355 42.4997C24.5734 42.6858 24.6533 42.8608 24.7689 43.0114C24.8846 43.162 25.0331 43.2843 25.2031 43.369C25.3731 43.4536 25.5601 43.4984 25.75 43.5C25.8618 43.5182 25.9757 43.5182 26.0875 43.5C28.955 42.5399 31.44 40.6872 33.1786 38.2131C34.9173 35.7389 35.8184 32.7732 35.75 29.75C35.75 21.9625 33.175 19.1625 32.8875 18.8625Z" fill="#CC00F5"/>
</g>
<defs>
<filter id="filter0_f_2_1684" x="-6" y="-2" width="56" height="56" filterUnits="userSpaceOnUse" color-interpolation-filters="sRGB">
<feFlood flood-opacity="0" result="BackgroundImageFix"/>
<feBlend mode="normal" in="SourceGraphic" in2="BackgroundImageFix" result="shape"/>
<feGaussianBlur stdDeviation="4" result="effect1_foregroundBlur_2_1684"/>
</filter>
</defs>
</svg>
