<svg width="24" height="24" viewBox="0 0 24 24" fill="none" xmlns="http://www.w3.org/2000/svg">
<path d="M18.5325 7.7175C18.4483 7.63316 18.3451 7.57012 18.2316 7.5336C18.1182 7.49708 17.9976 7.48813 17.88 7.5075C17.7633 7.52702 17.6528 7.57388 17.5576 7.64428C17.4625 7.71467 17.3853 7.80658 17.3325 7.9125C17.1031 8.30942 16.8233 8.67496 16.5 9C16.4238 7.02826 15.7018 5.13619 14.445 3.615C13.7419 2.89303 12.8918 2.33055 11.9524 1.96565C11.013 1.60076 10.0061 1.44195 9 1.5C8.86432 1.50036 8.73128 1.53752 8.61506 1.60752C8.49883 1.67752 8.40377 1.77774 8.34 1.8975C8.27978 2.01478 8.25154 2.14586 8.25812 2.27753C8.26471 2.4092 8.30588 2.53681 8.3775 2.6475C8.4825 2.805 10.7625 6.315 8.16 9.4725C7.5 8.955 6.75 8.1375 6.75 7.5C6.749 7.33206 6.69167 7.16931 6.58718 7.03783C6.4827 6.90635 6.33711 6.81374 6.17373 6.77484C6.01035 6.73594 5.83865 6.753 5.68612 6.82329C5.53359 6.89358 5.40907 7.01303 5.3325 7.1625C4.30805 9.38594 3.7686 11.802 3.75 14.25C3.75 20.715 8.5575 22.395 8.76 22.5C8.90535 22.5494 9.06236 22.553 9.20982 22.5103C9.35728 22.4676 9.48809 22.3807 9.58459 22.2613C9.68108 22.1419 9.73862 21.9958 9.74942 21.8427C9.76023 21.6895 9.72378 21.5368 9.645 21.405C8.93351 20.1275 8.65213 18.6549 8.8425 17.205C9.30449 18.1009 9.99211 18.8609 10.8375 19.41C10.9965 19.5154 11.1898 19.5563 11.3779 19.5243C11.566 19.4922 11.7348 19.3897 11.85 19.2375C12.8871 17.72 13.3789 15.8957 13.245 14.0625C14.0325 15.27 14.6325 17.5275 13.53 21.5625C13.5015 21.6728 13.4985 21.7882 13.5213 21.8998C13.5441 22.0115 13.592 22.1165 13.6614 22.2069C13.7308 22.2972 13.8198 22.3706 13.9218 22.4214C14.0238 22.4722 14.1361 22.4991 14.25 22.5C14.3171 22.5109 14.3854 22.5109 14.4525 22.5C16.173 21.924 17.664 20.8123 18.7072 19.3278C19.7504 17.8434 20.291 16.0639 20.25 14.25C20.25 9.5775 18.705 7.8975 18.5325 7.7175Z" fill="url(#paint0_linear_63_651)"/>
<defs>
<linearGradient id="paint0_linear_63_651" x1="12.0011" y1="1.48832" x2="12.0011" y2="22.5399" gradientUnits="userSpaceOnUse">
<stop stop-color="#FBE4B6"/>
<stop offset="1" stop-color="#F0B476"/>
</linearGradient>
</defs>
</svg>
