<svg width="52" height="52" viewBox="0 0 52 52" fill="none" xmlns="http://www.w3.org/2000/svg">
<g filter="url(#filter0_f_2_3808)">
<path d="M38.5 8.5H13.5C12.1739 8.5 10.9021 9.02678 9.96447 9.96447C9.02678 10.9021 8.5 12.1739 8.5 13.5V38.5C8.5 39.8261 9.02678 41.0979 9.96447 42.0355C10.9021 42.9732 12.1739 43.5 13.5 43.5H38.5C39.8261 43.5 41.0979 42.9732 42.0355 42.0355C42.9732 41.0979 43.5 39.8261 43.5 38.5V13.5C43.5 12.1739 42.9732 10.9021 42.0355 9.96447C41.0979 9.02678 39.8261 8.5 38.5 8.5ZM25.6337 30.6338C25.398 30.8614 25.0822 30.9874 24.7545 30.9846C24.4268 30.9817 24.1132 30.8503 23.8815 30.6185C23.6497 30.3868 23.5183 30.0732 23.5154 29.7455C23.5126 29.4178 23.6386 29.102 23.8663 28.8662L25.4825 27.25H17.25C16.9185 27.25 16.6005 27.1183 16.3661 26.8839C16.1317 26.6495 16 26.3315 16 26C16 25.6685 16.1317 25.3505 16.3661 25.1161C16.6005 24.8817 16.9185 24.75 17.25 24.75H25.4825L23.8663 23.1337C23.6386 22.898 23.5126 22.5822 23.5154 22.2545C23.5183 21.9268 23.6497 21.6132 23.8815 21.3815C24.1132 21.1497 24.4268 21.0183 24.7545 21.0154C25.0822 21.0126 25.398 21.1386 25.6337 21.3663L29.3838 25.1163C29.6181 25.3507 29.7497 25.6685 29.7497 26C29.7497 26.3315 29.6181 26.6493 29.3838 26.8838L25.6337 30.6338ZM36 34.75C36 35.0815 35.8683 35.3995 35.6339 35.6339C35.3995 35.8683 35.0815 36 34.75 36H31C30.6685 36 30.3505 35.8683 30.1161 35.6339C29.8817 35.3995 29.75 35.0815 29.75 34.75C29.75 34.4185 29.8817 34.1005 30.1161 33.8661C30.3505 33.6317 30.6685 33.5 31 33.5H33.5V18.5H31C30.6685 18.5 30.3505 18.3683 30.1161 18.1339C29.8817 17.8995 29.75 17.5815 29.75 17.25C29.75 16.9185 29.8817 16.6005 30.1161 16.3661C30.3505 16.1317 30.6685 16 31 16H34.75C35.0815 16 35.3995 16.1317 35.6339 16.3661C35.8683 16.6005 36 16.9185 36 17.25V34.75Z" fill="#CC00F5"/>
</g>
<defs>
<filter id="filter0_f_2_3808" x="-2" y="-2" width="56" height="56" filterUnits="userSpaceOnUse" color-interpolation-filters="sRGB">
<feFlood flood-opacity="0" result="BackgroundImageFix"/>
<feBlend mode="normal" in="SourceGraphic" in2="BackgroundImageFix" result="shape"/>
<feGaussianBlur stdDeviation="4" result="effect1_foregroundBlur_2_3808"/>
</filter>
</defs>
</svg>
