<svg width="40" height="40" viewBox="0 0 40 40" fill="none" xmlns="http://www.w3.org/2000/svg">
<path d="M32.5 2.5H7.5C6.17392 2.5 4.90215 3.02678 3.96447 3.96447C3.02678 4.90215 2.5 6.17392 2.5 7.5V32.5C2.5 33.8261 3.02678 35.0979 3.96447 36.0355C4.90215 36.9732 6.17392 37.5 7.5 37.5H32.5C33.8261 37.5 35.0979 36.9732 36.0355 36.0355C36.9732 35.0979 37.5 33.8261 37.5 32.5V7.5C37.5 6.17392 36.9732 4.90215 36.0355 3.96447C35.0979 3.02678 33.8261 2.5 32.5 2.5ZM19.6337 24.6338C19.398 24.8614 19.0822 24.9874 18.7545 24.9846C18.4268 24.9817 18.1132 24.8503 17.8815 24.6185C17.6497 24.3868 17.5183 24.0732 17.5154 23.7455C17.5126 23.4178 17.6386 23.102 17.8663 22.8662L19.4825 21.25H11.25C10.9185 21.25 10.6005 21.1183 10.3661 20.8839C10.1317 20.6495 10 20.3315 10 20C10 19.6685 10.1317 19.3505 10.3661 19.1161C10.6005 18.8817 10.9185 18.75 11.25 18.75H19.4825L17.8663 17.1337C17.6386 16.898 17.5126 16.5822 17.5154 16.2545C17.5183 15.9268 17.6497 15.6132 17.8815 15.3815C18.1132 15.1497 18.4268 15.0183 18.7545 15.0154C19.0822 15.0126 19.398 15.1386 19.6337 15.3663L23.3838 19.1163C23.6181 19.3507 23.7497 19.6685 23.7497 20C23.7497 20.3315 23.6181 20.6493 23.3838 20.8838L19.6337 24.6338ZM30 28.75C30 29.0815 29.8683 29.3995 29.6339 29.6339C29.3995 29.8683 29.0815 30 28.75 30H25C24.6685 30 24.3505 29.8683 24.1161 29.6339C23.8817 29.3995 23.75 29.0815 23.75 28.75C23.75 28.4185 23.8817 28.1005 24.1161 27.8661C24.3505 27.6317 24.6685 27.5 25 27.5H27.5V12.5H25C24.6685 12.5 24.3505 12.3683 24.1161 12.1339C23.8817 11.8995 23.75 11.5815 23.75 11.25C23.75 10.9185 23.8817 10.6005 24.1161 10.3661C24.3505 10.1317 24.6685 10 25 10H28.75C29.0815 10 29.3995 10.1317 29.6339 10.3661C29.8683 10.6005 30 10.9185 30 11.25V28.75Z" fill="#FCEAFF"/>
</svg>
