<svg width="24" height="24" viewBox="0 0 24 24" fill="none" xmlns="http://www.w3.org/2000/svg">
<path d="M19.5 1.5H4.5C3.70435 1.5 2.94129 1.81607 2.37868 2.37868C1.81607 2.94129 1.5 3.70435 1.5 4.5V19.5C1.5 20.2956 1.81607 21.0587 2.37868 21.6213C2.94129 22.1839 3.70435 22.5 4.5 22.5H19.5C20.2956 22.5 21.0587 22.1839 21.6213 21.6213C22.1839 21.0587 22.5 20.2956 22.5 19.5V4.5C22.5 3.70435 22.1839 2.94129 21.6213 2.37868C21.0587 1.81607 20.2956 1.5 19.5 1.5ZM11.7802 14.7803C11.6388 14.9169 11.4493 14.9925 11.2527 14.9908C11.0561 14.989 10.8679 14.9102 10.7289 14.7711C10.5898 14.6321 10.511 14.4439 10.5092 14.2473C10.5075 14.0507 10.5831 13.8612 10.7198 13.7197L11.6895 12.75H6.75C6.55109 12.75 6.36032 12.671 6.21967 12.5303C6.07902 12.3897 6 12.1989 6 12C6 11.8011 6.07902 11.6103 6.21967 11.4697C6.36032 11.329 6.55109 11.25 6.75 11.25H11.6895L10.7198 10.2802C10.5831 10.1388 10.5075 9.94935 10.5092 9.7527C10.511 9.55605 10.5898 9.36794 10.7289 9.22889C10.8679 9.08983 11.0561 9.01095 11.2527 9.00924C11.4493 9.00754 11.6388 9.08313 11.7802 9.21975L14.0303 11.4698C14.1709 11.6104 14.2498 11.8011 14.2498 12C14.2498 12.1989 14.1709 12.3896 14.0303 12.5303L11.7802 14.7803ZM18 17.25C18 17.4489 17.921 17.6397 17.7803 17.7803C17.6397 17.921 17.4489 18 17.25 18H15C14.8011 18 14.6103 17.921 14.4697 17.7803C14.329 17.6397 14.25 17.4489 14.25 17.25C14.25 17.0511 14.329 16.8603 14.4697 16.7197C14.6103 16.579 14.8011 16.5 15 16.5H16.5V7.5H15C14.8011 7.5 14.6103 7.42098 14.4697 7.28033C14.329 7.13968 14.25 6.94891 14.25 6.75C14.25 6.55109 14.329 6.36032 14.4697 6.21967C14.6103 6.07902 14.8011 6 15 6H17.25C17.4489 6 17.6397 6.07902 17.7803 6.21967C17.921 6.36032 18 6.55109 18 6.75V17.25Z" fill="url(#paint0_linear_63_2506)"/>
<defs>
<linearGradient id="paint0_linear_63_2506" x1="7.87292" y1="1.5" x2="7.87292" y2="22.5" gradientUnits="userSpaceOnUse">
<stop stop-color="#7700AE"/>
<stop offset="1" stop-color="#310047"/>
</linearGradient>
</defs>
</svg>
