<svg width="24" height="24" viewBox="0 0 24 24" fill="none" xmlns="http://www.w3.org/2000/svg">
<path d="M6.23999 2.39999C4.11922 2.39999 2.39999 4.11922 2.39999 6.23999V11.04H12.5624L10.3612 8.83882C9.9863 8.46391 9.9863 7.85608 10.3612 7.48117C10.7361 7.10627 11.3439 7.10627 11.7188 7.48117L15.5581 11.3205L15.565 11.3275C15.654 11.418 15.7213 11.5219 15.7671 11.6325C15.8138 11.7449 15.8396 11.868 15.84 11.9971V12V12.0029C15.8392 12.2636 15.7345 12.5 15.565 12.6725L15.5581 12.6795L11.7188 16.5188C11.3439 16.8937 10.7361 16.8937 10.3612 16.5188C9.9863 16.1439 9.9863 15.5361 10.3612 15.1612L12.5624 12.96H2.39999V17.76C2.39999 19.8807 4.11922 21.6 6.23999 21.6H17.76C19.8807 21.6 21.6 19.8807 21.6 17.76V6.23999C21.6 4.11922 19.8807 2.39999 17.76 2.39999H6.23999Z" fill="url(#paint0_linear_104_2506)"/>
<defs>
<linearGradient id="paint0_linear_104_2506" x1="8.22666" y1="2.4" x2="8.22666" y2="21.6" gradientUnits="userSpaceOnUse">
<stop stop-color="#7700AE"/>
<stop offset="1" stop-color="#310047"/>
</linearGradient>
</defs>
</svg>
