<svg width="31" height="30" viewBox="0 0 31 30" fill="none" xmlns="http://www.w3.org/2000/svg">
<g clip-path="url(#clip0_2_2552)">
<path d="M29.3297 20.6437C30.0589 18.8463 30.4282 16.9474 30.4282 14.9998C30.4282 13.052 30.0586 11.1534 29.3297 9.35598C29.2282 9.10524 29.12 8.85798 29.0058 8.6145C28.75 8.0692 28.0319 7.94146 27.6061 8.36755C27.3472 8.62649 27.2797 9.02009 27.4355 9.35156C27.5367 9.56729 27.6326 9.78585 27.7228 10.0079C28.3672 11.5974 28.6939 13.2769 28.6939 15.0002C28.6939 16.7234 28.3672 18.4032 27.7225 19.9924C27.0555 21.6372 26.0752 23.1135 24.8086 24.3801C23.542 25.6467 22.0657 26.6272 20.421 27.2943C18.8317 27.9389 17.152 28.2654 15.4287 28.2654C13.7051 28.2654 12.0257 27.9386 10.4364 27.2943C8.79136 26.6272 7.31503 25.647 6.04843 24.3804C4.78184 23.1138 3.80161 21.6375 3.13457 19.9924C2.48991 18.4032 2.16349 16.7238 2.16349 15.0002C2.16349 13.2769 2.49023 11.5971 3.13457 10.0079C3.80129 8.36282 4.78184 6.88681 6.04875 5.62021C7.31535 4.35361 8.79136 3.37307 10.4364 2.70634C12.026 2.06169 13.7054 1.73495 15.4287 1.73495C17.152 1.73495 18.8314 2.06201 20.421 2.70603C20.5377 2.75334 20.6537 2.80254 20.7688 2.853C21.0965 2.99681 21.4791 2.92617 21.732 2.67291C22.1629 2.24209 22.0276 1.51102 21.4696 1.26597C21.3384 1.20825 21.206 1.15243 21.0729 1.0985C19.2749 0.369635 17.3762 0 15.4284 0C13.4805 0 11.5816 0.369635 9.7842 1.0985C7.9231 1.85353 6.25343 2.96212 4.82189 4.39367C3.39003 5.82553 2.28144 7.49519 1.52672 9.35629C0.797857 11.1534 0.428223 13.0523 0.428223 15.0002C0.428223 16.948 0.797857 18.8466 1.5264 20.644C2.28144 22.5054 3.39003 24.1751 4.82157 25.6066C6.25312 27.0382 7.92278 28.1468 9.7842 28.9015C11.5816 29.6304 13.4805 30 15.4281 30C17.3759 30 19.2748 29.6304 21.0719 28.9015C22.9333 28.1468 24.603 27.0382 26.0346 25.6063C27.4661 24.1748 28.5747 22.5051 29.3294 20.6437H29.3297Z" fill="#EF6C6C"/>
<path d="M25.2946 5.74733C25.7736 5.74733 26.1619 5.35902 26.1619 4.88001C26.1619 4.40101 25.7736 4.0127 25.2946 4.0127C24.8156 4.0127 24.4272 4.40101 24.4272 4.88001C24.4272 5.35902 24.8156 5.74733 25.2946 5.74733Z" fill="#EF6C6C"/>
<path d="M10.024 8.54573C10.024 8.31802 10.1568 8.20416 10.4227 8.20416H11.7467C12.0314 8.20416 12.1737 8.30887 12.1737 8.51734C12.1737 8.74505 12.2923 8.85891 12.5298 8.85891H13.2274C13.5122 8.85891 13.6544 9.00115 13.6544 9.28594V9.99777C13.6544 10.2826 13.5122 10.4248 13.2274 10.4248H12.5298C12.2923 10.4248 12.1737 10.5816 12.1737 10.8947C12.1737 11.2079 12.2923 11.3647 12.5298 11.3647H13.0994C13.3841 11.3647 13.5264 11.5069 13.5264 11.7917V17.3728C13.5071 17.99 13.1703 18.3458 12.5156 18.4407C12.2879 18.4502 12.174 18.6022 12.174 18.8964C12.174 19.1907 12.2926 19.3377 12.5301 19.3377H13.0568C13.3416 19.3377 13.4838 19.4799 13.4838 19.7647V20.4765C13.4838 20.7613 13.3413 20.9036 13.0568 20.9036H12.5301C12.2926 20.9036 12.174 21.0222 12.174 21.2596V21.5015C12.174 21.7863 12.0318 21.9286 11.747 21.9286H10.4514C10.1666 21.9286 10.0243 21.7863 10.0243 21.5015V21.2596C10.0243 21.0222 9.90542 20.9036 9.66825 20.9036H8.84256C8.55777 20.9036 8.41553 20.7613 8.41553 20.4765V19.7647C8.41553 19.4799 8.55777 19.3377 8.84256 19.3377H9.66825C9.90542 19.3377 10.0243 19.1907 10.0243 18.8964C10.0243 18.6022 9.90542 18.4552 9.66825 18.4552H9.08446C8.79967 18.4552 8.65743 18.313 8.65743 18.0282V11.792C8.65743 11.5072 8.79967 11.365 9.08446 11.365H9.66825C9.90542 11.365 10.0243 11.2082 10.0243 10.8951C10.0243 10.5819 9.90542 10.4251 9.66825 10.4251H8.89933C8.61454 10.4251 8.4723 10.2829 8.4723 9.99809V9.28626C8.4723 9.00146 8.61454 8.85922 8.89933 8.85922H9.66825C9.90542 8.85922 10.0243 8.75483 10.0243 8.54604L10.024 8.54573ZM10.024 13.1873C10.024 12.9407 9.89091 12.817 9.62535 12.817C9.34056 12.817 9.19832 12.9359 9.19832 13.1731V13.8565C9.19832 14.094 9.33583 14.2126 9.61116 14.2126C9.8865 14.2126 10.024 14.094 10.024 13.8565V13.1873ZM10.024 16.0346C10.024 15.788 9.89091 15.6643 9.62535 15.6643C9.34056 15.6643 9.19832 15.7832 9.19832 16.0204V16.6326C9.19832 16.8701 9.33583 16.9887 9.61116 16.9887C9.8865 16.9887 10.024 16.8701 10.024 16.6326V16.0346ZM12.9855 13.1873C12.9855 12.9407 12.8524 12.817 12.5868 12.817C12.3213 12.817 12.174 12.9359 12.174 13.1731V13.8565C12.174 14.094 12.3068 14.2126 12.5727 14.2126C12.8385 14.2126 12.9855 14.094 12.9855 13.8565V13.1873ZM12.9855 16.0346C12.9855 15.788 12.8524 15.6643 12.5868 15.6643C12.3213 15.6643 12.174 15.7832 12.174 16.0204V16.6326C12.174 16.8701 12.2544 16.9887 12.4159 16.9887C12.8906 16.9981 13.0801 16.7799 12.9855 16.3336V16.0346ZM15.0355 8.80182C15.1017 8.4981 15.268 8.34609 15.5338 8.34609H20.5315C20.8163 8.34609 20.9822 8.48833 21.0298 8.77312C21.1152 9.2954 21.2149 9.81737 21.3288 10.3393C21.3477 10.6052 21.4048 10.7951 21.4997 10.9089C21.5852 10.9849 21.6896 11.037 21.8129 11.0657C21.9457 11.0751 22.0122 11.2224 22.0122 11.5069V12.3326C22.0122 12.6174 21.8697 12.7596 21.5852 12.7596C20.9872 12.8262 20.4696 12.7454 20.0332 12.5177C19.8811 12.3944 19.7149 12.3326 19.5348 12.3326H16.3882C16.1605 12.3326 15.9041 12.4373 15.6193 12.6458C15.3534 12.7596 14.9737 12.7978 14.4801 12.7596C14.1953 12.7596 14.0531 12.6174 14.0531 12.3326V11.5069C14.0531 11.2221 14.1051 11.0751 14.2098 11.0657C14.4848 11.0086 14.6321 10.8238 14.6511 10.5103C14.7649 9.94069 14.893 9.37141 15.0355 8.80182ZM14.2382 13.8562C14.2382 13.562 14.3757 13.415 14.6511 13.415H17.5984C17.8832 13.415 18.0254 13.5572 18.0254 13.842V20.8471C17.9872 21.4924 17.6267 21.8532 16.9433 21.9292C16.592 21.9292 16.3926 21.787 16.3453 21.5022C16.2882 21.2647 16.2457 21.0275 16.2173 20.7903C16.1697 20.5055 16.1889 20.3488 16.274 20.3204C16.5207 20.2539 16.6203 20.0735 16.573 19.7792C16.573 19.5799 16.4257 19.4802 16.1318 19.4802C15.8379 19.4802 15.6906 19.5988 15.6906 19.8363V21.5022C15.6906 21.787 15.548 21.9292 15.2635 21.9292H14.6656C14.3808 21.9292 14.2385 21.787 14.2385 21.5022V13.8565L14.2382 13.8562ZM16.5733 15.3799C16.5733 15.0383 16.4311 14.8674 16.1463 14.8674C15.8426 14.8674 15.6906 14.9863 15.6906 15.2234V15.5082C15.6906 15.7457 15.8375 15.8643 16.1318 15.8643C16.4261 15.8643 16.573 15.7031 16.573 15.3802L16.5733 15.3799ZM16.5733 17.6863C16.5733 17.3637 16.4311 17.2022 16.1463 17.2022C15.8426 17.2022 15.6906 17.3589 15.6906 17.6721C15.6906 17.9853 15.8375 18.142 16.1318 18.142C16.4261 18.142 16.573 17.9903 16.573 17.6863H16.5733ZM19.4494 10.4964C19.4017 10.1832 19.269 10.0265 19.0507 10.0265H16.972C16.7443 10.0265 16.597 10.1738 16.5308 10.4677C16.4926 10.7717 16.5875 10.9234 16.8156 10.9234H19.1362C19.3734 10.9234 19.4781 10.7812 19.4494 10.4964ZM18.5666 13.9417C18.5666 13.6569 18.6946 13.5147 18.9511 13.5147C19.2075 13.5147 19.3355 13.6569 19.3355 13.9417V19.2238C19.3355 19.5086 19.2075 19.6508 18.9511 19.6508C18.6946 19.6508 18.5666 19.5086 18.5666 19.2238V13.9417ZM19.9051 13.842C19.9051 13.5383 20.0379 13.3863 20.3038 13.3863H21.3288C21.6136 13.3863 21.7558 13.5285 21.7558 13.8133V20.8894C21.6893 21.459 21.343 21.8053 20.7163 21.9289H19.321C19.0362 21.9289 18.87 21.7867 18.8227 21.5019L18.723 20.9181C18.6849 20.6238 18.8035 20.4768 19.0791 20.4768C19.5061 20.5715 19.7815 20.4245 19.9048 20.0353V13.842H19.9051Z" fill="#EF6C6C"/>
</g>
<defs>
<clipPath id="clip0_2_2552">
<rect width="30" height="30" fill="white" transform="translate(0.428223)"/>
</clipPath>
</defs>
</svg>
