<svg width="52" height="52" viewBox="0 0 52 52" fill="none" xmlns="http://www.w3.org/2000/svg">
<g filter="url(#filter0_f_2_3136)">
<path fill-rule="evenodd" clip-rule="evenodd" d="M8.08301 12.6666V16C8.08301 18.5316 10.1347 20.5833 12.6663 20.5833H15.9997C18.5313 20.5833 20.583 18.5316 20.583 16V15.5833H32.6663C33.6613 15.5833 34.6147 15.9783 35.318 16.6816C36.0213 17.385 36.4163 18.3383 36.4163 19.3333V19.75H35.9997C33.468 19.75 31.4163 21.8016 31.4163 24.3333V24.75H19.333C17.6747 24.75 16.0863 25.4083 14.913 26.58C13.7413 27.7533 13.083 29.3416 13.083 31V31.4166H12.6663C10.1347 31.4166 8.08301 33.4683 8.08301 36V39.3333C8.08301 41.865 10.1347 43.9166 12.6663 43.9166H15.9997C18.5313 43.9166 20.583 41.865 20.583 39.3333V38.9167H27.983L26.783 40.1166C26.2947 40.6033 26.2947 41.3967 26.783 41.8833C27.2697 42.3717 28.063 42.3717 28.5497 41.8833L31.8538 38.5792C31.9815 38.4598 32.0851 38.3129 32.1547 38.145C32.2933 37.8104 32.2777 37.439 32.1257 37.1241C32.0922 37.0547 32.0521 36.988 32.0055 36.9251C31.9687 36.8753 31.9278 36.8279 31.883 36.7833L28.5497 33.45C28.063 32.9616 27.2697 32.9616 26.783 33.45C26.2947 33.9366 26.2947 34.73 26.783 35.2167L27.9813 36.4167H20.583V36C20.583 33.4683 18.5313 31.4166 15.9997 31.4166H15.583V31C15.583 30.005 15.978 29.0516 16.6813 28.3483C17.3847 27.645 18.338 27.25 19.333 27.25H31.4163V27.6666C31.4163 30.1983 33.468 32.25 35.9997 32.25H39.333C41.8647 32.25 43.9163 30.1983 43.9163 27.6666V24.3333C43.9163 21.8016 41.8647 19.75 39.333 19.75H38.9163V19.3333C38.9163 17.675 38.258 16.0866 37.0863 14.9133C35.913 13.7416 34.3247 13.0833 32.6663 13.0833H20.583V12.6666C20.583 10.135 18.5313 8.08331 15.9997 8.08331H12.6663C10.1347 8.08331 8.08301 10.135 8.08301 12.6666Z" fill="#CC00F5"/>
</g>
<defs>
<filter id="filter0_f_2_3136" x="-2" y="-2" width="56" height="56" filterUnits="userSpaceOnUse" color-interpolation-filters="sRGB">
<feFlood flood-opacity="0" result="BackgroundImageFix"/>
<feBlend mode="normal" in="SourceGraphic" in2="BackgroundImageFix" result="shape"/>
<feGaussianBlur stdDeviation="4" result="effect1_foregroundBlur_2_3136"/>
</filter>
</defs>
</svg>
