<svg width="24" height="24" viewBox="0 0 24 24" fill="none" xmlns="http://www.w3.org/2000/svg">
<path fill-rule="evenodd" clip-rule="evenodd" d="M1.25 4V6C1.25 7.519 2.481 8.75 4 8.75H6C7.519 8.75 8.75 7.519 8.75 6V5.75H16C16.597 5.75 17.169 5.987 17.591 6.409C18.013 6.831 18.25 7.403 18.25 8V8.25H18C16.481 8.25 15.25 9.481 15.25 11V11.25H8C7.005 11.25 6.052 11.645 5.348 12.348C4.645 13.052 4.25 14.005 4.25 15V15.25H4C2.481 15.25 1.25 16.481 1.25 18V20C1.25 21.519 2.481 22.75 4 22.75H6C7.519 22.75 8.75 21.519 8.75 20V19.75H13.19L12.47 20.47C12.177 20.762 12.177 21.238 12.47 21.53C12.762 21.823 13.238 21.823 13.53 21.53L15.5125 19.5475C15.5891 19.4759 15.6513 19.3877 15.693 19.287C15.7769 19.0846 15.7666 18.8596 15.6733 18.6697C15.6375 18.5969 15.5896 18.5293 15.53 18.47L13.53 16.47C13.238 16.177 12.762 16.177 12.47 16.47C12.177 16.762 12.177 17.238 12.47 17.53L13.189 18.25H8.75V18C8.75 16.481 7.519 15.25 6 15.25H5.75V15C5.75 14.403 5.987 13.831 6.409 13.409C6.831 12.987 7.403 12.75 8 12.75H15.25V13C15.25 14.519 16.481 15.75 18 15.75H20C21.519 15.75 22.75 14.519 22.75 13V11C22.75 9.481 21.519 8.25 20 8.25H19.75V8C19.75 7.005 19.355 6.052 18.652 5.348C17.948 4.645 16.995 4.25 16 4.25H8.75V4C8.75 2.481 7.519 1.25 6 1.25H4C2.481 1.25 1.25 2.481 1.25 4Z" fill="url(#paint0_linear_63_2060)"/>
<defs>
<linearGradient id="paint0_linear_63_2060" x1="12" y1="1.25" x2="12" y2="22.75" gradientUnits="userSpaceOnUse">
<stop stop-color="#FBE4B6"/>
<stop offset="1" stop-color="#F0B476"/>
</linearGradient>
</defs>
</svg>
