<svg width="40" height="40" viewBox="0 0 40 40" fill="none" xmlns="http://www.w3.org/2000/svg">
<path fill-rule="evenodd" clip-rule="evenodd" d="M2.08301 6.66665V9.99998C2.08301 12.5316 4.13467 14.5833 6.66634 14.5833H9.99967C12.5313 14.5833 14.583 12.5316 14.583 9.99998V9.58331H26.6663C27.6613 9.58331 28.6147 9.97831 29.318 10.6816C30.0213 11.385 30.4163 12.3383 30.4163 13.3333V13.75H29.9997C27.468 13.75 25.4163 15.8016 25.4163 18.3333V18.75H13.333C11.6747 18.75 10.0863 19.4083 8.91301 20.58C7.74134 21.7533 7.08301 23.3416 7.08301 25V25.4166H6.66634C4.13467 25.4166 2.08301 27.4683 2.08301 30V33.3333C2.08301 35.865 4.13467 37.9166 6.66634 37.9166H9.99967C12.5313 37.9166 14.583 35.865 14.583 33.3333V32.9167H21.983L20.783 34.1166C20.2947 34.6033 20.2947 35.3967 20.783 35.8833C21.2697 36.3717 22.063 36.3717 22.5497 35.8833L25.8538 32.5792C25.9815 32.4598 26.0851 32.3129 26.1547 32.145C26.2933 31.8104 26.2777 31.439 26.1257 31.1241C26.0922 31.0547 26.0521 30.988 26.0055 30.9251C25.9687 30.8753 25.9278 30.8279 25.883 30.7833L22.5497 27.45C22.063 26.9616 21.2697 26.9616 20.783 27.45C20.2947 27.9366 20.2947 28.73 20.783 29.2167L21.9813 30.4167H14.583V30C14.583 27.4683 12.5313 25.4166 9.99967 25.4166H9.58301V25C9.58301 24.005 9.97801 23.0516 10.6813 22.3483C11.3847 21.645 12.338 21.25 13.333 21.25H25.4163V21.6666C25.4163 24.1983 27.468 26.25 29.9997 26.25H33.333C35.8647 26.25 37.9163 24.1983 37.9163 21.6666V18.3333C37.9163 15.8016 35.8647 13.75 33.333 13.75H32.9163V13.3333C32.9163 11.675 32.258 10.0866 31.0863 8.91331C29.913 7.74165 28.3247 7.08331 26.6663 7.08331H14.583V6.66665C14.583 4.13498 12.5313 2.08331 9.99967 2.08331H6.66634C4.13467 2.08331 2.08301 4.13498 2.08301 6.66665Z" fill="white"/>
</svg>
