<svg width="48" height="52" viewBox="0 0 48 52" fill="none" xmlns="http://www.w3.org/2000/svg">
<g filter="url(#filter0_f_2_4715)">
<path d="M37.114 36.6409L33.5471 40.2078L31.8979 38.5598C31.4097 38.0715 30.6187 38.0715 30.1304 38.5598C29.6421 39.0481 29.6421 39.8391 30.1304 40.3274L32.6633 42.8591C32.9075 43.1033 33.2273 43.2253 33.5471 43.2253C33.8669 43.2253 34.1868 43.1033 34.4309 42.8591L38.8816 38.4084C39.3699 37.9202 39.3699 37.1292 38.8816 36.6409C38.3933 36.1526 37.6023 36.1526 37.114 36.6409Z" fill="#CC00F5"/>
<path d="M32.5022 8.5H15.0022C11.5522 8.5 8.7522 11.3 8.7522 14.75V37.25C8.7522 40.7 11.5522 43.5 15.0022 43.5H29.7647L28.3647 42.1C26.9022 40.6375 26.9022 38.2625 28.3647 36.7875C29.7897 35.3625 32.0772 35.325 33.5397 36.675L35.3522 34.875C36.2772 33.95 37.5647 33.6125 38.7522 33.8625V14.75C38.7522 11.3 35.9522 8.5 32.5022 8.5ZM31.2522 33.5H16.2522C15.5647 33.5 15.0022 32.9375 15.0022 32.25C15.0022 31.5625 15.5647 31 16.2522 31H31.2522C31.9397 31 32.5022 31.5625 32.5022 32.25C32.5022 32.9375 31.9397 33.5 31.2522 33.5ZM31.2522 27.25H16.2522C15.5647 27.25 15.0022 26.6875 15.0022 26C15.0022 25.3125 15.5647 24.75 16.2522 24.75H31.2522C31.9397 24.75 32.5022 25.3125 32.5022 26C32.5022 26.6875 31.9397 27.25 31.2522 27.25ZM31.2522 21H16.2522C15.5647 21 15.0022 20.4375 15.0022 19.75C15.0022 19.0625 15.5647 18.5 16.2522 18.5H31.2522C31.9397 18.5 32.5022 19.0625 32.5022 19.75C32.5022 20.4375 31.9397 21 31.2522 21Z" fill="#CC00F5"/>
</g>
<defs>
<filter id="filter0_f_2_4715" x="-4" y="-2" width="56" height="56" filterUnits="userSpaceOnUse" color-interpolation-filters="sRGB">
<feFlood flood-opacity="0" result="BackgroundImageFix"/>
<feBlend mode="normal" in="SourceGraphic" in2="BackgroundImageFix" result="shape"/>
<feGaussianBlur stdDeviation="4" result="effect1_foregroundBlur_2_4715"/>
</filter>
</defs>
</svg>
