<svg width="40" height="40" viewBox="0 0 40 40" fill="none" xmlns="http://www.w3.org/2000/svg">
<path d="M33.114 30.6409L29.5471 34.2078L27.8979 32.5598C27.4097 32.0715 26.6187 32.0715 26.1304 32.5598C25.6421 33.0481 25.6421 33.8391 26.1304 34.3274L28.6633 36.8591C28.9075 37.1033 29.2273 37.2253 29.5471 37.2253C29.8669 37.2253 30.1868 37.1033 30.4309 36.8591L34.8816 32.4084C35.3699 31.9202 35.3699 31.1292 34.8816 30.6409C34.3933 30.1526 33.6023 30.1526 33.114 30.6409Z" fill="#FCEAFF"/>
<path d="M28.5022 2.5H11.0022C7.55219 2.5 4.7522 5.29999 4.7522 8.75V31.25C4.7522 34.7 7.55219 37.5 11.0022 37.5H25.7647L24.3647 36.1C22.9022 34.6375 22.9022 32.2625 24.3647 30.7875C25.7897 29.3625 28.0772 29.325 29.5397 30.675L31.3522 28.875C32.2772 27.95 33.5647 27.6125 34.7522 27.8625V8.75C34.7522 5.29999 31.9522 2.5 28.5022 2.5ZM27.2522 27.5H12.2522C11.5647 27.5 11.0022 26.9375 11.0022 26.25C11.0022 25.5625 11.5647 25 12.2522 25H27.2522C27.9397 25 28.5022 25.5625 28.5022 26.25C28.5022 26.9375 27.9397 27.5 27.2522 27.5ZM27.2522 21.25H12.2522C11.5647 21.25 11.0022 20.6875 11.0022 20C11.0022 19.3125 11.5647 18.75 12.2522 18.75H27.2522C27.9397 18.75 28.5022 19.3125 28.5022 20C28.5022 20.6875 27.9397 21.25 27.2522 21.25ZM27.2522 15H12.2522C11.5647 15 11.0022 14.4375 11.0022 13.75C11.0022 13.0625 11.5647 12.5 12.2522 12.5H27.2522C27.9397 12.5 28.5022 13.0625 28.5022 13.75C28.5022 14.4375 27.9397 15 27.2522 15Z" fill="#FCEAFF"/>
</svg>
