<svg width="56" height="50" viewBox="0 0 56 50" fill="none" xmlns="http://www.w3.org/2000/svg">
<g filter="url(#filter0_f_2_5746)">
<path d="M46.3336 26.6666C46.7504 26.6666 47.1672 26.2498 47.1672 25.833V20.833C47.1672 19.4162 46.084 18.333 44.6672 18.333H38V41.6666H44.6664C46.0832 41.6666 47.1664 40.5834 47.1664 39.1666V34.1666C47.166 33.9457 47.078 33.7339 46.9218 33.5776C46.7655 33.4214 46.5538 33.3334 46.3328 33.333C45.4577 33.3195 44.6231 32.9623 44.009 32.3387C43.395 31.7151 43.0508 30.875 43.0508 29.9998C43.0508 29.1246 43.395 28.2845 44.009 27.6609C44.6231 27.0373 45.4577 26.6802 46.3328 26.6666H46.3336Z" fill="#CC00F5"/>
<path d="M45.7505 15.8337C46.1673 15.6673 46.4169 15.1673 46.2505 14.7505L44.5833 10.0001C44.1665 8.66648 42.6633 8.00008 41.4169 8.41688L17.7505 16.5833H44.4169C44.8121 16.2544 45.2641 16.0003 45.7505 15.8337Z" fill="#CC00F5"/>
<path d="M8.8335 20.8335V25.8335C8.8335 26.3335 9.1671 26.6671 9.6671 26.6671C10.1092 26.6602 10.5482 26.7414 10.9586 26.9058C11.369 27.0703 11.7426 27.3147 12.0576 27.6249C12.3727 27.9351 12.6228 28.3049 12.7936 28.7127C12.9644 29.1205 13.0523 29.5582 13.0523 30.0003C13.0523 30.4424 12.9644 30.8801 12.7936 31.2879C12.6228 31.6957 12.3727 32.0655 12.0576 32.3757C11.7426 32.6859 11.369 32.9303 10.9586 33.0948C10.5482 33.2592 10.1092 33.3403 9.6671 33.3335C9.1671 33.3335 8.8335 33.6671 8.8335 34.1671V39.1671C8.8335 40.5839 9.9167 41.6671 11.3335 41.6671H36.3335V18.3335H11.3335C9.9199 18.3335 8.8335 19.4167 8.8335 20.8335ZM18.8335 24.9999H23.8335C24.3335 24.9999 24.6671 25.3335 24.6671 25.8335C24.6671 26.3335 24.3335 26.6671 23.8335 26.6671H18.8335C18.3335 26.6671 17.9999 26.3335 17.9999 25.8335C17.9999 25.3335 18.3335 24.9999 18.8335 24.9999ZM18.8335 29.1663H29.6663C30.1663 29.1663 30.4999 29.4999 30.4999 29.9999C30.4999 30.4999 30.1663 30.8335 29.6663 30.8335H18.8335C18.3335 30.8335 17.9999 30.4999 17.9999 29.9999C17.9999 29.4999 18.3335 29.1663 18.8335 29.1663ZM18.8335 33.3327H29.6663C30.1663 33.3327 30.4999 33.6663 30.4999 34.1663C30.4999 34.6663 30.1663 34.9999 29.6663 34.9999H18.8335C18.3335 34.9999 17.9999 34.6663 17.9999 34.1663C17.9999 33.6663 18.3335 33.3335 18.8335 33.3335V33.3327Z" fill="#CC00F5"/>
</g>
<defs>
<filter id="filter0_f_2_5746" x="0" y="-3" width="56" height="56" filterUnits="userSpaceOnUse" color-interpolation-filters="sRGB">
<feFlood flood-opacity="0" result="BackgroundImageFix"/>
<feBlend mode="normal" in="SourceGraphic" in2="BackgroundImageFix" result="shape"/>
<feGaussianBlur stdDeviation="4" result="effect1_foregroundBlur_2_5746"/>
</filter>
</defs>
</svg>
