<svg width="40" height="40" viewBox="0 0 40 40" fill="none" xmlns="http://www.w3.org/2000/svg">
<path d="M38.3336 21.6666C38.7504 21.6666 39.1672 21.2498 39.1672 20.833V15.833C39.1672 14.4162 38.084 13.333 36.6672 13.333H30V36.6666H36.6664C38.0832 36.6666 39.1664 35.5834 39.1664 34.1666V29.1666C39.166 28.9457 39.078 28.7339 38.9218 28.5776C38.7655 28.4214 38.5538 28.3334 38.3328 28.333C37.4577 28.3195 36.6231 27.9623 36.009 27.3387C35.395 26.7151 35.0508 25.875 35.0508 24.9998C35.0508 24.1246 35.395 23.2845 36.009 22.6609C36.6231 22.0373 37.4577 21.6802 38.3328 21.6666H38.3336Z" fill="#FCEAFF"/>
<path d="M37.7505 10.8337C38.1673 10.6673 38.4169 10.1673 38.2505 9.75048L36.5833 5.00008C36.1665 3.66648 34.6633 3.00008 33.4169 3.41688L9.75049 11.5833H36.4169C36.8121 11.2544 37.2641 11.0003 37.7505 10.8337Z" fill="#FCEAFF"/>
<path d="M0.833496 15.8335V20.8335C0.833496 21.3335 1.1671 21.6671 1.6671 21.6671C2.10916 21.6602 2.54818 21.7414 2.95858 21.9058C3.36899 22.0703 3.74258 22.3147 4.05762 22.6249C4.37266 22.9351 4.62285 23.3049 4.79362 23.7127C4.96439 24.1205 5.05234 24.5582 5.05234 25.0003C5.05234 25.4424 4.96439 25.8801 4.79362 26.2879C4.62285 26.6957 4.37266 27.0655 4.05762 27.3757C3.74258 27.6859 3.36899 27.9303 2.95858 28.0948C2.54818 28.2592 2.10916 28.3403 1.6671 28.3335C1.1671 28.3335 0.833496 28.6671 0.833496 29.1671V34.1671C0.833496 35.5839 1.9167 36.6671 3.3335 36.6671H28.3335V13.3335H3.3335C1.9199 13.3335 0.833496 14.4167 0.833496 15.8335ZM10.8335 19.9999H15.8335C16.3335 19.9999 16.6671 20.3335 16.6671 20.8335C16.6671 21.3335 16.3335 21.6671 15.8335 21.6671H10.8335C10.3335 21.6671 9.9999 21.3335 9.9999 20.8335C9.9999 20.3335 10.3335 19.9999 10.8335 19.9999ZM10.8335 24.1663H21.6663C22.1663 24.1663 22.4999 24.4999 22.4999 24.9999C22.4999 25.4999 22.1663 25.8335 21.6663 25.8335H10.8335C10.3335 25.8335 9.9999 25.4999 9.9999 24.9999C9.9999 24.4999 10.3335 24.1663 10.8335 24.1663ZM10.8335 28.3327H21.6663C22.1663 28.3327 22.4999 28.6663 22.4999 29.1663C22.4999 29.6663 22.1663 29.9999 21.6663 29.9999H10.8335C10.3335 29.9999 9.9999 29.6663 9.9999 29.1663C9.9999 28.6663 10.3335 28.3335 10.8335 28.3335V28.3327Z" fill="#FCEAFF"/>
</svg>
