<svg width="24" height="24" viewBox="0 0 24 24" fill="none" xmlns="http://www.w3.org/2000/svg">
<path d="M12 13.6922C13.5469 13.6922 14.9766 13.2563 16.1203 12.5156C17.0063 11.9484 18.1594 12.0422 18.9375 12.75C21.0985 14.7094 22.3266 17.4891 22.3219 20.4094V21.6609C22.3219 22.9547 21.2719 24 19.9782 24H4.0219C2.72815 24 1.67815 22.9547 1.67815 21.6609V20.4094C1.66878 17.4938 2.8969 14.7094 5.05784 12.7547C5.83597 12.0469 6.99378 11.9531 7.87503 12.5203C9.02347 13.2563 10.4485 13.6922 12 13.6922Z" fill="url(#paint0_linear_63_2510)"/>
<path d="M12 11.6063C15.205 11.6063 17.8031 9.0081 17.8031 5.80313C17.8031 2.59815 15.205 0 12 0C8.79505 0 6.1969 2.59815 6.1969 5.80313C6.1969 9.0081 8.79505 11.6063 12 11.6063Z" fill="url(#paint1_linear_63_2510)"/>
<defs>
<linearGradient id="paint0_linear_63_2510" x1="7.94293" y1="12.1468" x2="7.94293" y2="24" gradientUnits="userSpaceOnUse">
<stop stop-color="#7700AE"/>
<stop offset="1" stop-color="#310047"/>
</linearGradient>
<linearGradient id="paint1_linear_63_2510" x1="9.71907" y1="1.12005e-06" x2="9.71907" y2="11.6063" gradientUnits="userSpaceOnUse">
<stop stop-color="#7700AE"/>
<stop offset="1" stop-color="#310047"/>
</linearGradient>
</defs>
</svg>
