<svg width="40" height="40" viewBox="0 0 40 40" fill="none" xmlns="http://www.w3.org/2000/svg">
<path d="M20.0001 22.8203C22.5782 22.8203 24.961 22.0937 26.8673 20.8594C28.3438 19.9141 30.2657 20.0703 31.5626 21.25C35.1642 24.5156 37.211 29.1484 37.2032 34.0156V36.1016C37.2032 38.2578 35.4532 40 33.297 40H6.70321C4.54696 40 2.79696 38.2578 2.79696 36.1016V34.0156C2.78134 29.1562 4.82821 24.5156 8.42978 21.2578C9.72665 20.0781 11.6563 19.9219 13.1251 20.8672C15.0392 22.0937 17.4142 22.8203 20.0001 22.8203Z" fill="#FCEAFF"/>
<path d="M20 19.3438C25.3416 19.3438 29.6719 15.0135 29.6719 9.67188C29.6719 4.33025 25.3416 0 20 0C14.6584 0 10.3281 4.33025 10.3281 9.67188C10.3281 15.0135 14.6584 19.3438 20 19.3438Z" fill="#FCEAFF"/>
</svg>
