<svg width="31" height="30" viewBox="0 0 31 30" fill="none" xmlns="http://www.w3.org/2000/svg">
<g clip-path="url(#clip0_63_646)">
<path d="M29.33 20.6437C30.0591 18.8463 30.4285 16.9474 30.4285 14.9998C30.4285 13.052 30.0588 11.1534 29.33 9.35598C29.2284 9.10524 29.1202 8.85798 29.0061 8.6145C28.7503 8.0692 28.0322 7.94146 27.6064 8.36755C27.3474 8.62649 27.28 9.02009 27.4358 9.35156C27.537 9.56729 27.6329 9.78585 27.7231 10.0079C28.3674 11.5974 28.6941 13.2769 28.6941 15.0002C28.6941 16.7234 28.3674 18.4032 27.7228 19.9924C27.0557 21.6372 26.0755 23.1135 24.8089 24.3801C23.5423 25.6467 22.066 26.6272 20.4212 27.2943C18.832 27.9389 17.1522 28.2654 15.4289 28.2654C13.7053 28.2654 12.0259 27.9386 10.4367 27.2943C8.7916 26.6272 7.31527 25.647 6.04868 24.3804C4.78208 23.1138 3.80185 21.6375 3.13481 19.9924C2.49016 18.4032 2.16373 16.7238 2.16373 15.0002C2.16373 13.2769 2.49047 11.5971 3.13481 10.0079C3.80154 8.36282 4.78208 6.88681 6.04899 5.62021C7.31559 4.35361 8.7916 3.37307 10.4367 2.70634C12.0262 2.06169 13.7057 1.73495 15.4289 1.73495C17.1522 1.73495 18.8317 2.06201 20.4212 2.70603C20.5379 2.75334 20.654 2.80254 20.7691 2.853C21.0968 2.99681 21.4793 2.92617 21.7323 2.67291C22.1631 2.24209 22.0278 1.51102 21.4699 1.26597C21.3387 1.20825 21.2062 1.15243 21.0731 1.0985C19.2751 0.369635 17.3765 0 15.4286 0C13.4808 0 11.5818 0.369635 9.78444 1.0985C7.92334 1.85353 6.25368 2.96212 4.82213 4.39367C3.39027 5.82553 2.28169 7.49519 1.52696 9.35629C0.798101 11.1534 0.428467 13.0523 0.428467 15.0002C0.428467 16.948 0.798101 18.8466 1.52665 20.644C2.28169 22.5054 3.39027 24.1751 4.82182 25.6066C6.25336 27.0382 7.92303 28.1468 9.78444 28.9015C11.5818 29.6304 13.4808 30 15.4283 30C17.3761 30 19.2751 29.6304 21.0722 28.9015C22.9336 28.1468 24.6033 27.0382 26.0348 25.6063C27.4663 24.1748 28.5749 22.5051 29.3297 20.6437H29.33Z" fill="white"/>
<path d="M25.2949 5.74733C25.7739 5.74733 26.1622 5.35902 26.1622 4.88001C26.1622 4.40101 25.7739 4.0127 25.2949 4.0127C24.8159 4.0127 24.4276 4.40101 24.4276 4.88001C24.4276 5.35902 24.8159 5.74733 25.2949 5.74733Z" fill="white"/>
<path d="M9.59674 12.5748C9.7106 12.2809 9.90046 12.1336 10.1663 12.1336H11.4336C11.7184 12.1336 11.8082 12.2758 11.7042 12.5606C11.4954 13.0826 11.3005 13.6049 11.1204 14.1268C11.0444 14.3643 10.9494 14.5494 10.8356 14.6822C10.6457 14.9292 10.6978 15.0525 10.9923 15.0525C11.2677 15.0525 11.4052 15.1947 11.4052 15.4795V21.5022C11.4052 21.787 11.2629 21.9292 10.9781 21.9292H9.69672C9.41193 21.9292 9.26969 21.787 9.26969 21.5022V15.6789C9.26969 15.4417 9.17949 15.3228 8.99908 15.3228C8.82814 15.3228 8.71429 15.1805 8.65752 14.8957L8.50077 14.0414C8.46261 13.766 8.58624 13.6049 8.87104 13.5572C9.11767 13.5289 9.30753 13.3485 9.44063 13.0163C9.47847 12.8741 9.53083 12.7268 9.59737 12.5751L9.59674 12.5748ZM9.71091 8.83052C9.84369 8.53658 10.0525 8.3893 10.3373 8.3893H11.5903C11.8751 8.3893 11.9606 8.53154 11.8467 8.81633L10.9498 10.9521C10.6933 11.3984 10.3467 11.6548 9.91024 11.7211L9.17002 11.7352C8.88523 11.7352 8.71902 11.593 8.67171 11.3082L8.51496 10.4538C8.48658 10.1785 8.54808 10.0363 8.7001 10.0268C9.04166 10.0079 9.29303 9.79908 9.45482 9.40043L9.71123 8.83084L9.71091 8.83052ZM16.3883 8.64539C16.3883 8.35145 16.5211 8.20416 16.787 8.20416H18.111C18.3957 8.20416 18.538 8.3464 18.538 8.6312C18.538 8.91599 18.6566 9.07243 18.8941 9.07243H21.6846C21.9694 9.07243 22.1116 9.21467 22.1116 9.49946V10.3393C22.1116 10.6241 21.9691 10.7664 21.6846 10.7664H18.8941C18.6566 10.7664 18.538 10.8853 18.538 11.1224V11.9768C18.538 12.2143 18.6566 12.3329 18.8941 12.3329H21.3998C21.6846 12.3329 21.8268 12.4751 21.8268 12.7599V13.5856C21.8268 13.8704 21.6846 14.0127 21.3998 14.0127H13.7258C13.441 14.0127 13.2988 13.8704 13.2988 13.5856V12.7599C13.2988 12.4751 13.441 12.3329 13.7258 12.3329H16.0322C16.2694 12.3329 16.3883 12.2143 16.3883 11.9768V11.1224C16.3883 10.8853 16.2694 10.7664 16.0322 10.7664H13.2133C12.9285 10.7664 12.7863 10.6241 12.7863 10.3393V9.49946C12.7863 9.21467 12.9285 9.07243 13.2133 9.07243H16.0322C16.2694 9.07243 16.3883 8.93018 16.3883 8.64539ZM18.9511 15.2089C18.9511 14.9434 19.0839 14.8103 19.3498 14.8103H20.6596C20.9444 14.8103 21.0866 14.9339 21.0866 15.1805C21.0866 15.4464 21.2052 15.5792 21.4427 15.5792H21.6849C21.9697 15.5792 22.112 15.7214 22.112 16.0062V16.8319C22.112 17.1167 21.9694 17.2589 21.6849 17.2589H21.4427C21.2052 17.2589 21.0866 17.3778 21.0866 17.615V20.7046C21.0296 21.3404 20.6546 21.7485 19.962 21.9289H18.5525C18.2677 21.9289 18.1015 21.7867 18.0542 21.5019L17.9403 20.7758C17.8927 20.491 17.9734 20.3488 18.1822 20.3488C18.5714 20.4343 18.8275 20.2728 18.9511 19.8647V17.615C18.9511 17.3778 18.8322 17.2589 18.5951 17.2589H13.2701C12.9853 17.2589 12.843 17.1167 12.843 16.8319V16.0062C12.843 15.7214 12.9853 15.5792 13.2701 15.5792H18.5951C18.8322 15.5792 18.9511 15.4559 18.9511 15.2089ZM13.4268 18.7968C13.3035 18.4647 13.3555 18.2985 13.5836 18.2985H15.0927C15.3775 18.2985 15.567 18.4407 15.6623 18.7255L15.8332 19.1525C15.9471 19.6458 16.2366 19.8975 16.7018 19.9073C16.8917 19.9073 16.9866 20.0495 16.9866 20.3343V21.16C16.9866 21.4448 16.8444 21.587 16.5596 21.587C15.914 21.6532 15.3825 21.5728 14.965 21.3451C14.4241 21.0982 14.0775 20.6853 13.9254 20.1066C13.745 19.6698 13.5788 19.2333 13.4271 18.7968H13.4268Z" fill="white"/>
</g>
<defs>
<clipPath id="clip0_63_646">
<rect width="30" height="30" fill="white" transform="translate(0.428467)"/>
</clipPath>
</defs>
</svg>
