<svg width="31" height="30" viewBox="0 0 31 30" fill="none" xmlns="http://www.w3.org/2000/svg">
<g clip-path="url(#clip0_2_2529)">
<path d="M29.3297 20.6437C30.0589 18.8463 30.4282 16.9474 30.4282 14.9998C30.4282 13.052 30.0586 11.1534 29.3297 9.35598C29.2282 9.10524 29.12 8.85798 29.0058 8.6145C28.75 8.0692 28.0319 7.94146 27.6061 8.36755C27.3472 8.62649 27.2797 9.02009 27.4355 9.35156C27.5367 9.56729 27.6326 9.78585 27.7228 10.0079C28.3672 11.5974 28.6939 13.2769 28.6939 15.0002C28.6939 16.7234 28.3672 18.4032 27.7225 19.9924C27.0555 21.6372 26.0752 23.1135 24.8086 24.3801C23.542 25.6467 22.0657 26.6272 20.421 27.2943C18.8317 27.9389 17.152 28.2654 15.4287 28.2654C13.7051 28.2654 12.0257 27.9386 10.4364 27.2943C8.79136 26.6272 7.31503 25.647 6.04843 24.3804C4.78184 23.1138 3.80161 21.6375 3.13457 19.9924C2.48991 18.4032 2.16349 16.7238 2.16349 15.0002C2.16349 13.2769 2.49023 11.5971 3.13457 10.0079C3.80129 8.36282 4.78184 6.88681 6.04875 5.62021C7.31535 4.35361 8.79136 3.37307 10.4364 2.70634C12.026 2.06169 13.7054 1.73495 15.4287 1.73495C17.152 1.73495 18.8314 2.06201 20.421 2.70603C20.5377 2.75334 20.6537 2.80254 20.7688 2.853C21.0965 2.99681 21.4791 2.92617 21.732 2.67291C22.1629 2.24209 22.0276 1.51102 21.4696 1.26597C21.3384 1.20825 21.206 1.15243 21.0729 1.0985C19.2749 0.369635 17.3762 0 15.4284 0C13.4805 0 11.5816 0.369635 9.7842 1.0985C7.9231 1.85353 6.25343 2.96212 4.82189 4.39367C3.39003 5.82553 2.28144 7.49519 1.52672 9.35629C0.797857 11.1534 0.428223 13.0523 0.428223 15.0002C0.428223 16.948 0.797857 18.8466 1.5264 20.644C2.28144 22.5054 3.39003 24.1751 4.82157 25.6066C6.25312 27.0382 7.92278 28.1468 9.7842 28.9015C11.5816 29.6304 13.4805 30 15.4281 30C17.3759 30 19.2748 29.6304 21.0719 28.9015C22.9333 28.1468 24.603 27.0382 26.0346 25.6063C27.4661 24.1748 28.5747 22.5051 29.3294 20.6437H29.3297Z" fill="#CCCCCC"/>
<path d="M25.2946 5.74733C25.7736 5.74733 26.1619 5.35902 26.1619 4.88001C26.1619 4.40101 25.7736 4.0127 25.2946 4.0127C24.8156 4.0127 24.4272 4.40101 24.4272 4.88001C24.4272 5.35902 24.8156 5.74733 25.2946 5.74733Z" fill="#CCCCCC"/>
<path d="M14.1954 8.65961C14.1954 8.36536 14.3329 8.21838 14.6082 8.21838H15.9038C16.1886 8.21838 16.3309 8.36062 16.3309 8.64542V8.9586C16.3309 9.19609 16.4495 9.31467 16.687 9.31467H21.2572C21.542 9.31467 21.6843 9.45691 21.6843 9.74171V10.5674C21.6843 10.8522 21.5417 10.9944 21.2572 10.9944H16.687C16.4495 10.9944 16.3309 11.1133 16.3309 11.3505V12.888C16.3309 13.1255 16.4495 13.2441 16.687 13.2441H21.6559C21.9407 13.2441 22.0829 13.3863 22.0829 13.6711V14.4968C22.0829 14.7816 21.9407 14.9238 21.6559 14.9238H16.687C16.4495 14.9238 16.3309 15.0427 16.3309 15.2799V16.4188C16.3309 16.6563 16.4495 16.7749 16.687 16.7749H21.0863C21.3711 16.7749 21.5133 16.9171 21.5133 17.2019V18.0276C21.5133 18.3124 21.3711 18.4546 21.0863 18.4546H16.687C16.4495 18.4546 16.3309 18.5735 16.3309 18.8107V19.8928C16.3309 20.1299 16.4495 20.2489 16.687 20.2489H21.6559C21.9407 20.2489 22.0829 20.3911 22.0829 20.6759V21.5016C22.0829 21.7864 21.9407 21.9286 21.6559 21.9286H12.0883C11.8984 21.8904 11.7086 21.8337 11.5187 21.7577C11.2147 21.5773 10.9302 21.5725 10.6643 21.7435C10.2846 21.9333 9.75315 21.9948 9.06971 21.9286C8.78491 21.9286 8.6187 21.7864 8.5714 21.5016L8.45754 20.7897C8.39099 20.4289 8.40992 20.2485 8.51463 20.2485C9.04605 20.2202 9.27849 19.9637 9.21226 19.4796V16.561C9.21226 16.2762 9.3545 16.134 9.6393 16.134H10.8636C11.1484 16.134 11.2907 16.2762 11.2907 16.561V19.0384C11.2907 19.2661 11.3478 19.4752 11.4616 19.6648C11.7937 20.1205 12.1829 20.3148 12.6292 20.2485H13.8393C14.0765 20.2485 14.1954 20.1296 14.1954 19.8925V15.2793C14.1954 15.0421 14.0765 14.9232 13.8393 14.9232H8.79911C8.51431 14.9232 8.37207 14.781 8.37207 14.4962V13.6705C8.37207 13.3857 8.51431 13.2435 8.79911 13.2435H13.8393C14.0765 13.2435 14.1954 13.1249 14.1954 12.8874V11.3499C14.1954 11.1127 14.0765 10.9938 13.8393 10.9938H9.19776C8.91296 10.9938 8.77072 10.8516 8.77072 10.5668V9.74108C8.77072 9.45628 8.91296 9.31404 9.19776 9.31404H13.8393C14.0765 9.31404 14.1954 9.19546 14.1954 8.95797V8.65898V8.65961Z" fill="#CCCCCC"/>
</g>
<defs>
<clipPath id="clip0_2_2529">
<rect width="30" height="30" fill="white" transform="translate(0.428223)"/>
</clipPath>
</defs>
</svg>
