<svg width="31" height="30" viewBox="0 0 31 30" fill="none" xmlns="http://www.w3.org/2000/svg">
<g clip-path="url(#clip0_2_2506)">
<path d="M29.3297 20.6437C30.0589 18.8463 30.4282 16.9474 30.4282 14.9998C30.4282 13.052 30.0586 11.1534 29.3297 9.35598C29.2282 9.10524 29.12 8.85798 29.0058 8.6145C28.75 8.0692 28.0319 7.94146 27.6061 8.36755C27.3472 8.62649 27.2797 9.02009 27.4355 9.35156C27.5367 9.56729 27.6326 9.78585 27.7228 10.0079C28.3672 11.5974 28.6939 13.2769 28.6939 15.0002C28.6939 16.7234 28.3672 18.4032 27.7225 19.9924C27.0555 21.6372 26.0752 23.1135 24.8086 24.3801C23.542 25.6467 22.0657 26.6272 20.421 27.2943C18.8317 27.9389 17.152 28.2654 15.4287 28.2654C13.7051 28.2654 12.0257 27.9386 10.4364 27.2943C8.79136 26.6272 7.31503 25.647 6.04843 24.3804C4.78184 23.1138 3.80161 21.6375 3.13457 19.9924C2.48991 18.4032 2.16349 16.7238 2.16349 15.0002C2.16349 13.2769 2.49023 11.5971 3.13457 10.0079C3.80129 8.36282 4.78184 6.88681 6.04875 5.62021C7.31535 4.35361 8.79136 3.37307 10.4364 2.70634C12.026 2.06169 13.7054 1.73495 15.4287 1.73495C17.152 1.73495 18.8314 2.06201 20.421 2.70603C20.5377 2.75334 20.6537 2.80254 20.7688 2.853C21.0965 2.99681 21.4791 2.92617 21.732 2.67291C22.1629 2.24209 22.0276 1.51102 21.4696 1.26597C21.3384 1.20825 21.206 1.15243 21.0729 1.0985C19.2749 0.369635 17.3762 0 15.4284 0C13.4805 0 11.5816 0.369635 9.7842 1.0985C7.9231 1.85353 6.25343 2.96212 4.82189 4.39367C3.39003 5.82553 2.28144 7.49519 1.52672 9.35629C0.797857 11.1534 0.428223 13.0523 0.428223 15.0002C0.428223 16.948 0.797857 18.8466 1.5264 20.644C2.28144 22.5054 3.39003 24.1751 4.82157 25.6066C6.25312 27.0382 7.92278 28.1468 9.7842 28.9015C11.5816 29.6304 13.4805 30 15.4281 30C17.3759 30 19.2748 29.6304 21.0719 28.9015C22.9333 28.1468 24.603 27.0382 26.0346 25.6063C27.4661 24.1748 28.5747 22.5051 29.3294 20.6437H29.3297Z" fill="#6EE7FF"/>
<path d="M25.2946 5.74733C25.7736 5.74733 26.1619 5.35902 26.1619 4.88001C26.1619 4.40101 25.7736 4.0127 25.2946 4.0127C24.8156 4.0127 24.4272 4.40101 24.4272 4.88001C24.4272 5.35902 24.8156 5.74733 25.2946 5.74733Z" fill="#6EE7FF"/>
<path d="M14.1954 8.43187C14.1954 8.28017 14.3282 8.20416 14.594 8.20416H15.9038C16.1886 8.20416 16.3309 8.27071 16.3309 8.40349C16.3309 8.5555 16.4495 8.6312 16.687 8.6312H21.6559C21.9407 8.6312 22.0829 8.77344 22.0829 9.05823V9.31464C22.0829 9.59944 21.9407 9.74168 21.6559 9.74168H11.59C11.343 9.74168 11.2197 9.79876 11.2197 9.91262C11.267 10.3778 11.4903 10.5582 11.889 10.4535H21.3143C21.5991 10.4535 21.7414 10.5816 21.7414 10.838C21.7414 11.0944 21.5991 11.2224 21.3143 11.2224H10.0521C9.32107 11.1086 8.95585 10.7336 8.95585 10.0978C8.95585 9.86058 8.85619 9.74168 8.65687 9.74168C8.45754 9.74168 8.37207 9.59944 8.37207 9.31464V9.05823C8.37207 8.77344 8.51431 8.6312 8.79911 8.6312H13.8393C14.0765 8.6312 14.1954 8.56497 14.1954 8.43187ZM8.78491 15.1235C8.78491 14.8197 8.91769 14.6677 9.18356 14.6677H12.3302C12.615 14.6677 12.7572 14.81 12.7572 15.0948V20.8184C12.6434 21.6062 12.2255 21.9762 11.5042 21.9289C11.2194 21.9289 11.0437 21.7867 10.9775 21.5019L10.9062 21.1745C10.8397 20.8613 10.8491 20.6904 10.9346 20.662C11.1623 20.5383 11.243 20.3438 11.1765 20.0782C11.1765 19.8694 11.0434 19.765 10.7778 19.765C10.5123 19.765 10.365 19.8836 10.365 20.1211C10.3839 20.5768 10.365 20.9042 10.3079 21.1035C10.0991 21.7204 9.68156 21.9958 9.05488 21.9292C8.77009 21.9292 8.59442 21.787 8.52819 21.5022L8.45691 21.1748C8.39036 20.8616 8.3809 20.7001 8.42852 20.6907C8.73224 20.6241 8.85083 20.4106 8.7846 20.0501V15.1238L8.78491 15.1235ZM8.92747 12.3758C8.92747 12.0815 9.06498 11.9346 9.34031 11.9346H21.2289C21.5136 11.9346 21.6559 12.0768 21.6559 12.3616C21.6748 12.694 21.6559 12.9548 21.5991 13.1447C21.4376 13.6954 21.0913 13.966 20.5596 13.9562H9.3545C9.06971 13.9562 8.92747 13.814 8.92747 13.5292V12.3758ZM11.1768 16.462C11.1768 16.1582 11.0488 16.0062 10.7924 16.0062C10.5076 16.0062 10.3653 16.1535 10.3653 16.4475C10.3653 16.7414 10.4981 16.8887 10.764 16.8887C11.0298 16.8887 11.1768 16.7464 11.1768 16.4616V16.462ZM11.1768 18.3414C11.1768 18.0376 11.0437 17.8856 10.7782 17.8856C10.5126 17.8856 10.3653 18.0329 10.3653 18.3272C10.3653 18.6214 10.4981 18.7684 10.764 18.7684C11.0298 18.7684 11.1768 18.6262 11.1768 18.3414ZM19.4633 12.8028C19.4538 12.6606 19.3353 12.5893 19.1072 12.5893H11.4758C11.2383 12.5893 11.1197 12.7032 11.1197 12.9309C11.1197 13.1586 11.2383 13.287 11.4758 13.287H18.7799C19.1785 13.3724 19.4062 13.2109 19.4633 12.8028ZM13.4549 15.1235C13.4549 14.8197 13.5876 14.6677 13.8535 14.6677H16.6015C16.8863 14.6677 17.0285 14.81 17.0285 15.0948V19.2806C17.0001 19.5748 16.8954 19.836 16.7153 20.0637C16.6015 20.1775 16.5633 20.3769 16.6015 20.6617C16.6015 20.8228 16.7011 20.9465 16.9005 21.0319C16.9859 21.0414 17.0285 21.1931 17.0285 21.4877C17.0285 21.7822 16.8863 21.9242 16.6015 21.9147C15.8897 21.81 15.5241 21.4211 15.5052 20.7471C15.467 20.5096 15.3579 20.3911 15.1778 20.3911C14.988 20.3911 14.8788 20.538 14.8505 20.8323C14.841 21.4873 14.5086 21.8573 13.8538 21.9428C13.569 21.9617 13.3839 21.8289 13.2984 21.5441C13.2035 21.2499 13.213 21.0978 13.3268 21.0884C13.564 21.0218 13.6873 20.8843 13.6971 20.6755C13.7633 20.4857 13.7397 20.3907 13.6258 20.3907C13.5119 20.3907 13.4549 20.2485 13.4549 19.9637V15.1228V15.1235ZM15.6761 15.9349C15.6761 15.6785 15.5288 15.5505 15.2349 15.5505C14.941 15.5505 14.7937 15.6785 14.7937 15.9349C14.7937 16.1914 14.9407 16.3194 15.2349 16.3194C15.5292 16.3194 15.6761 16.1914 15.6761 15.9349ZM15.6761 17.5012C15.6761 17.2258 15.5339 17.0883 15.2491 17.0883C14.9454 17.0883 14.7934 17.2214 14.7934 17.487C14.7934 17.7525 14.9403 17.8998 15.2346 17.8998C15.5288 17.8998 15.6758 17.767 15.6758 17.5012H15.6761ZM15.6761 19.0103C15.6761 18.792 15.5288 18.6829 15.2349 18.6829C14.941 18.6829 14.7937 18.8207 14.7937 19.0958C14.7937 19.3708 14.8839 19.5086 15.0643 19.5086C15.4345 19.5657 15.6386 19.3995 15.6765 19.0103H15.6761ZM17.6694 15.1235C17.6694 14.8197 17.8022 14.6677 18.068 14.6677H21.2572C21.542 14.6677 21.6843 14.81 21.6843 15.0948V20.0069C21.6083 20.2823 21.7079 20.5052 21.9833 20.6762C22.0495 20.6951 22.0829 20.8471 22.0829 21.1319V21.5022C22.0829 21.787 21.9407 21.9292 21.6559 21.9292C21.0295 22.0238 20.5785 21.7819 20.3032 21.2032C20.2556 20.9755 20.1799 20.8282 20.0755 20.762C19.838 20.6197 19.6816 20.3299 19.6056 19.8934V17.4018C19.6056 17.117 19.6197 16.9748 19.6481 16.9748C19.6765 16.9748 19.691 17.117 19.691 17.4018C19.6816 17.9714 19.691 18.541 19.7194 19.1103C19.7762 19.2717 19.8948 19.3619 20.0755 19.3809C20.1799 19.3903 20.2322 19.2812 20.2322 19.0535V16.4765C20.2322 16.2393 20.1133 16.1204 19.8762 16.1204H19.4775C19.24 16.1204 19.1214 16.2393 19.1214 16.4765V20.8332C19.0647 21.4501 18.7417 21.8062 18.1532 21.9011C17.8018 21.9201 17.5931 21.7873 17.5268 21.5025L17.4556 21.2035C17.389 20.9092 17.3937 20.7336 17.4697 20.6768C17.6691 20.4775 17.7353 20.2589 17.6691 20.0217V15.1241L17.6694 15.1235Z" fill="#6EE7FF"/>
</g>
<defs>
<clipPath id="clip0_2_2506">
<rect width="30" height="30" fill="white" transform="translate(0.428223)"/>
</clipPath>
</defs>
</svg>
